<svg width="1280" height="960" viewBox="0 0 1280 960" fill="none" xmlns="http://www.w3.org/2000/svg">
<g clip-path="url(#clip0_907_32852)">
<path opacity="0.2" d="M651.382 249.128H666V350H613V249.128H627.208H630.208V246.128V214.269H631.306H634.306V211.269V14.645C636.558 14.3749 639.16 14.1265 641.413 14.0359C642.551 13.9902 643.524 13.9884 644.285 14.0294V211.269V214.269H647.285H648.382V246.128V249.128H651.382Z" fill="url(#paint0_linear_907_32852)" fill-opacity="0.5" stroke="url(#paint1_linear_907_32852)" stroke-width="6"/>
<g filter="url(#filter0_ddd_907_32852)">
<path d="M610 150H670V141H610V150ZM639.55 131.1L663.25 107.55L656.95 101.25L644.2 113.85V84H635.2V113.85L622.45 101.25L616.15 107.55L639.55 131.1ZM640 180C631.8 180 624.05 178.45 616.75 175.35C609.45 172.15 603.05 167.85 597.55 162.45C592.15 156.95 587.85 150.55 584.65 143.25C581.55 135.95 580 128.2 580 120C580 111.7 581.55 103.9 584.65 96.6C587.85 89.3 592.15 82.95 597.55 77.55C603.05 72.15 609.45 67.9 616.75 64.8C624.05 61.6 631.8 60 640 60C648.3 60 656.1 61.6 663.4 64.8C670.7 67.9 677.05 72.15 682.45 77.55C687.85 82.95 692.1 89.3 695.2 96.6C698.4 103.9 700 111.7 700 120C700 128.2 698.4 135.95 695.2 143.25C692.1 150.55 687.85 156.95 682.45 162.45C677.05 167.85 670.7 172.15 663.4 175.35C656.1 178.45 648.3 180 640 180ZM640 171C654.2 171 666.25 166.05 676.15 156.15C686.05 146.15 691 134.1 691 120C691 105.8 686.05 93.75 676.15 83.85C666.25 73.95 654.2 69 640 69C625.9 69 613.85 73.95 603.85 83.85C593.95 93.75 589 105.8 589 120C589 134.1 593.95 146.15 603.85 156.15C613.85 166.05 625.9 171 640 171Z" fill="#00E0BA"/>
</g>
<path d="M462.584 347.645V337.654C462.584 334.211 459.965 331.363 456.525 331.223C436.725 330.42 372.901 330.276 332.722 358.571C331.027 359.765 330.065 361.729 330.065 363.803V383.026" stroke="#00E0BA" stroke-width="6.62013" stroke-miterlimit="10"/>
<path d="M817.684 347.645V337.654C817.684 334.211 820.303 331.363 823.743 331.223C843.543 330.42 907.367 330.276 947.546 358.571C949.241 359.765 950.203 361.729 950.203 363.803V383.026" stroke="#00E0BA" stroke-width="6.62013" stroke-miterlimit="10"/>
<path d="M1085.43 800.498C1068.58 672.499 1032.94 533.566 1001.18 450.592C970.071 366.975 887.763 350.252 810.639 350.252H469.093C391.969 350.252 309.661 366.975 278.552 450.592C247.444 534.21 211.798 672.499 194.3 800.498C184.578 864.176 231.241 902.768 272.719 907.271C314.197 911.773 364.101 896.336 388.729 833.302C413.356 770.91 423.726 717.524 475.573 717.524C519.644 717.524 759.44 717.524 803.51 717.524C855.358 717.524 865.728 770.91 890.355 833.302C914.983 895.693 964.886 911.773 1006.36 907.271C1047.84 902.768 1095.15 864.176 1085.43 800.498Z" fill="white" fill-opacity="0.05"/>
<path d="M1085.43 800.498C1068.58 672.499 1032.94 533.566 1001.18 450.592C970.071 366.975 887.763 350.252 810.639 350.252H469.093C391.969 350.252 309.661 366.975 278.552 450.592C247.444 534.21 211.798 672.499 194.3 800.498C184.578 864.176 231.241 902.768 272.719 907.271C314.197 911.773 364.101 896.336 388.729 833.302C413.356 770.91 423.726 717.524 475.573 717.524C519.644 717.524 759.44 717.524 803.51 717.524C855.358 717.524 865.728 770.91 890.355 833.302C914.983 895.693 964.886 911.773 1006.36 907.271C1047.84 902.768 1095.15 864.176 1085.43 800.498Z" fill="url(#paint2_radial_907_32852)" fill-opacity="0.2"/>
<path d="M1085.43 800.498C1068.58 672.499 1032.94 533.566 1001.18 450.592C970.071 366.975 887.763 350.252 810.639 350.252H469.093C391.969 350.252 309.661 366.975 278.552 450.592C247.444 534.21 211.798 672.499 194.3 800.498C184.578 864.176 231.241 902.768 272.719 907.271C314.197 911.773 364.101 896.336 388.729 833.302C413.356 770.91 423.726 717.524 475.573 717.524C519.644 717.524 759.44 717.524 803.51 717.524C855.358 717.524 865.728 770.91 890.355 833.302C914.983 895.693 964.886 911.773 1006.36 907.271C1047.84 902.768 1095.15 864.176 1085.43 800.498Z" fill="url(#paint3_radial_907_32852)" fill-opacity="0.15"/>
<path d="M1085.43 800.498C1068.58 672.499 1032.94 533.566 1001.18 450.592C970.071 366.975 887.763 350.252 810.639 350.252H469.093C391.969 350.252 309.661 366.975 278.552 450.592C247.444 534.21 211.798 672.499 194.3 800.498C184.578 864.176 231.241 902.768 272.719 907.271C314.197 911.773 364.101 896.336 388.729 833.302C413.356 770.91 423.726 717.524 475.573 717.524C519.644 717.524 759.44 717.524 803.51 717.524C855.358 717.524 865.728 770.91 890.355 833.302C914.983 895.693 964.886 911.773 1006.36 907.271C1047.84 902.768 1095.15 864.176 1085.43 800.498Z" stroke="url(#paint4_linear_907_32852)" stroke-width="8.27516" stroke-miterlimit="10"/>
<path d="M445.898 475.362H420.065C418.236 475.362 416.754 473.88 416.754 472.052V446.219C416.754 433.915 406.392 423.553 394.087 423.553C381.782 423.553 371.42 433.915 371.42 446.219V472.052C371.42 473.88 369.938 475.362 368.11 475.362H342.277C329.972 475.362 319.61 485.724 319.61 498.029C319.61 510.334 329.972 520.696 342.277 520.696H368.11C369.938 520.696 371.42 522.178 371.42 524.006V549.839C371.42 562.144 381.782 572.506 394.087 572.506C406.392 572.506 416.754 562.144 416.754 549.839V524.006C416.754 522.178 418.236 520.696 420.065 520.696H445.898C458.203 520.696 468.565 510.334 468.565 498.029C468.565 485.724 458.85 475.362 445.898 475.362Z" stroke="#00E0BA" stroke-width="4.9651" stroke-miterlimit="10"/>
<path opacity="0.5" d="M507.826 679.384C537.076 679.384 560.788 655.673 560.788 626.423C560.788 597.174 537.076 573.462 507.826 573.462C478.576 573.462 454.865 597.174 454.865 626.423C454.865 655.673 478.576 679.384 507.826 679.384Z" stroke="#00E0BA" stroke-width="1.65503" stroke-miterlimit="10"/>
<path d="M507.452 666.144C529.389 666.144 547.173 648.36 547.173 626.423C547.173 604.486 529.389 586.702 507.452 586.702C485.514 586.702 467.73 604.486 467.73 626.423C467.73 648.36 485.514 666.144 507.452 666.144Z" stroke="#00E0BA" stroke-width="4.9651" stroke-miterlimit="10"/>
<path d="M639.858 656.214C656.311 656.214 669.649 642.876 669.649 626.423C669.649 609.97 656.311 596.633 639.858 596.633C623.406 596.633 610.068 609.97 610.068 626.423C610.068 642.876 623.406 656.214 639.858 656.214Z" stroke="#00E0BA" stroke-width="3.31006" stroke-miterlimit="10"/>
<path d="M632.245 623.759C641.559 619.558 649.7 622.091 654.049 624.213C654.456 624.412 654.945 624.206 655.089 623.776L656.36 619.96C656.509 619.514 656.304 619.028 655.881 618.821C650.514 616.2 637.771 612.018 623.702 621.919C623.338 622.176 623.208 622.656 623.389 623.063L626.359 629.746C626.559 630.197 627.073 630.415 627.536 630.246C630.935 629.001 636.074 627.694 641.401 628.463C637.796 629.074 634.899 630.346 632.674 631.711C632.277 631.955 632.12 632.454 632.305 632.881C632.305 632.881 633.485 635.583 634.13 637.062C634.291 637.431 634.776 637.516 635.052 637.225C635.736 636.503 636.493 635.978 637.108 635.621C639.985 633.95 643.963 632.713 649.341 632.997C649.761 633.019 650.145 632.757 650.278 632.358L651.637 628.281C651.773 627.873 651.615 627.424 651.252 627.194C647.264 624.673 641.121 622.573 632.22 623.769L632.245 623.759Z" fill="#00E0BA"/>
<path opacity="0.5" d="M772.261 679.383C801.511 679.383 825.222 655.672 825.222 626.422C825.222 597.173 801.511 573.462 772.261 573.462C743.012 573.462 719.3 597.173 719.3 626.422C719.3 655.672 743.012 679.383 772.261 679.383Z" stroke="#00E0BA" stroke-width="1.65503" stroke-miterlimit="10"/>
<path d="M772.65 666.552C794.587 666.552 812.371 648.768 812.371 626.831C812.371 604.895 794.587 587.111 772.65 587.111C750.713 587.111 732.929 604.895 732.929 626.831C732.929 648.768 750.713 666.552 772.65 666.552Z" stroke="#00E0BA" stroke-width="4.9651" stroke-miterlimit="10"/>
<path d="M550.818 450.308C559.711 450.308 567.037 442.761 567.037 433.758C567.037 424.754 559.711 417.208 550.818 417.208H526.985C518.092 417.208 510.766 424.754 510.766 433.758C510.766 442.761 518.092 450.308 526.985 450.308H550.818Z" stroke="#00E0BA" stroke-width="3.31006" stroke-miterlimit="10"/>
<path d="M532.282 433.612C532.282 435.44 530.8 436.922 528.972 436.922C527.144 436.922 525.662 435.44 525.662 433.612C525.662 431.784 527.144 430.302 528.972 430.302C530.8 430.302 532.282 431.784 532.282 433.612Z" fill="#00E0BA"/>
<path d="M542.212 433.612C542.212 435.44 540.73 436.922 538.902 436.922C537.074 436.922 535.592 435.44 535.592 433.612C535.592 431.784 537.074 430.302 538.902 430.302C540.73 430.302 542.212 431.784 542.212 433.612Z" fill="#00E0BA"/>
<path d="M552.142 433.612C552.142 435.44 550.66 436.922 548.832 436.922C547.004 436.922 545.522 435.44 545.522 433.612C545.522 431.784 547.004 430.302 548.832 430.302C550.66 430.302 552.142 431.784 552.142 433.612Z" fill="#00E0BA"/>
<path d="M576.968 518.871C587.936 518.871 596.828 509.979 596.828 499.011C596.828 488.042 587.936 479.15 576.968 479.15C565.999 479.15 557.107 488.042 557.107 499.011C557.107 509.979 565.999 518.871 576.968 518.871Z" stroke="#00E0BA" stroke-width="3.31006" stroke-miterlimit="10"/>
<path d="M586.139 496.089C585.737 496.089 585.391 495.953 585.101 495.679C584.828 495.389 584.691 495.044 584.691 494.641C584.691 494.239 584.828 493.901 585.101 493.628C585.391 493.338 585.737 493.193 586.139 493.193C586.541 493.193 586.879 493.338 587.153 493.628C587.442 493.901 587.587 494.239 587.587 494.641C587.587 495.044 587.442 495.389 587.153 495.679C586.879 495.953 586.541 496.089 586.139 496.089ZM581.795 500.917C580.99 500.917 580.306 500.635 579.743 500.072C579.18 499.509 578.898 498.825 578.898 498.02C578.898 497.216 579.18 496.532 579.743 495.969C580.306 495.406 580.99 495.124 581.795 495.124C582.599 495.124 583.283 495.406 583.846 495.969C584.409 496.532 584.691 497.216 584.691 498.02C584.691 498.825 584.409 499.509 583.846 500.072C583.283 500.635 582.599 500.917 581.795 500.917ZM581.795 508.64C580.861 508.64 580.065 508.31 579.405 507.651C578.745 506.991 578.416 506.194 578.416 505.261C578.416 504.328 578.745 503.531 579.405 502.872C580.065 502.212 580.861 501.882 581.795 501.882C582.728 501.882 583.524 502.212 584.184 502.872C584.844 503.531 585.174 504.328 585.174 505.261C585.174 506.194 584.844 506.991 584.184 507.651C583.524 508.31 582.728 508.64 581.795 508.64ZM572.14 500.917C570.531 500.917 569.164 500.353 568.037 499.227C566.911 498.101 566.348 496.733 566.348 495.124C566.348 493.515 566.911 492.147 568.037 491.021C569.164 489.895 570.531 489.331 572.14 489.331C573.749 489.331 575.117 489.895 576.243 491.021C577.37 492.147 577.933 493.515 577.933 495.124C577.933 496.733 577.37 498.101 576.243 499.227C575.117 500.353 573.749 500.917 572.14 500.917Z" fill="#00E0BA"/>
<path d="M702.226 518.871C713.195 518.871 722.087 509.979 722.087 499.01C722.087 488.042 713.195 479.15 702.226 479.15C691.258 479.15 682.366 488.042 682.366 499.01C682.366 509.979 691.258 518.871 702.226 518.871Z" stroke="#00E0BA" stroke-width="3.31006" stroke-miterlimit="10"/>
<path d="M693.233 507.675V501.561H695.406V505.502H699.347V507.675H693.233ZM693.233 496.379V490.297H699.347V492.469H695.406V496.379H693.233ZM704.529 507.675V505.502H708.439V501.561H710.611V507.675H704.529ZM708.439 496.379V492.469H704.529V490.297H710.611V496.379H708.439Z" fill="#00E0BA"/>
<path d="M752.628 450.308C761.521 450.308 768.847 442.761 768.847 433.758C768.847 424.754 761.521 417.208 752.628 417.208H728.796C719.903 417.208 712.576 424.754 712.576 433.758C712.576 442.761 719.903 450.308 728.796 450.308H752.628Z" stroke="#00E0BA" stroke-width="3.31006" stroke-miterlimit="10"/>
<path d="M730.265 440.646V438.536H751.366V440.646H730.265ZM730.265 434.667V432.557H751.366V434.667H730.265ZM730.265 428.688V426.578H751.366V428.688H730.265Z" fill="#00E0BA"/>
<path d="M893.698 581.737C909.237 581.737 921.833 569.141 921.833 553.602C921.833 538.063 909.237 525.466 893.698 525.466C878.159 525.466 865.562 538.063 865.562 553.602C865.562 569.141 878.159 581.737 893.698 581.737Z" stroke="#00E0BA" stroke-width="3.31006" stroke-miterlimit="10"/>
<path d="M885.498 562.704L892.648 543.744H895.958L903.134 562.704H899.93L898.182 557.832H890.45L888.702 562.704H885.498ZM897.202 555.131L895.11 549.332L894.395 547.16H894.237L893.522 549.332L891.43 555.131H897.202Z" fill="#00E0BA"/>
<path d="M837.635 525.404C853.174 525.404 865.77 512.807 865.77 497.268C865.77 481.729 853.174 469.133 837.635 469.133C822.096 469.133 809.499 481.729 809.499 497.268C809.499 512.807 822.096 525.404 837.635 525.404Z" stroke="#00E0BA" stroke-width="3.31006" stroke-miterlimit="10"/>
<path d="M829.784 487.473H833.358L837.569 494.279H837.728L841.965 487.473H845.513L839.608 496.583L845.937 506.433H842.388L837.728 499.045H837.569L832.908 506.433H829.36L835.689 496.583L829.784 487.473Z" fill="#00E0BA"/>
<path d="M893.698 469.195C909.237 469.195 921.833 456.598 921.833 441.06C921.833 425.521 909.237 412.924 893.698 412.924C878.159 412.924 865.562 425.521 865.562 441.06C865.562 456.598 878.159 469.195 893.698 469.195Z" stroke="#00E0BA" stroke-width="3.31006" stroke-miterlimit="10"/>
<path d="M892.526 450.089V441.298L886.118 431.129H889.561L893.877 438.279H894.036L898.246 431.129H901.715L895.413 441.298V450.089H892.526Z" fill="#00E0BA"/>
<path d="M950.177 525.404C965.716 525.404 978.313 512.807 978.313 497.268C978.313 481.729 965.716 469.133 950.177 469.133C934.639 469.133 922.042 481.729 922.042 497.268C922.042 512.807 934.639 525.404 950.177 525.404Z" stroke="#00E0BA" stroke-width="3.31006" stroke-miterlimit="10"/>
<path d="M944.447 506.433V487.473H951.544C952.586 487.473 953.53 487.694 954.377 488.135C955.225 488.577 955.896 489.177 956.39 489.936C956.902 490.695 957.158 491.551 957.158 492.505C957.158 493.476 956.92 494.305 956.443 494.994C955.966 495.682 955.348 496.203 954.589 496.556V496.689C955.543 497.006 956.319 497.554 956.92 498.33C957.52 499.107 957.82 500.034 957.82 501.111C957.82 502.17 957.546 503.097 956.999 503.891C956.469 504.686 955.746 505.312 954.828 505.771C953.927 506.213 952.939 506.433 951.862 506.433H944.447ZM947.36 498.039V503.732H951.862C952.497 503.732 953.045 503.6 953.504 503.335C953.963 503.07 954.307 502.717 954.536 502.276C954.783 501.835 954.907 501.376 954.907 500.899C954.907 500.387 954.783 499.919 954.536 499.495C954.289 499.054 953.927 498.701 953.451 498.436C952.992 498.171 952.427 498.039 951.756 498.039H947.36ZM947.36 495.444H951.412C952.03 495.444 952.55 495.32 952.974 495.073C953.415 494.808 953.751 494.473 953.98 494.067C954.21 493.643 954.324 493.211 954.324 492.769C954.324 492.328 954.21 491.913 953.98 491.525C953.768 491.119 953.451 490.792 953.027 490.545C952.603 490.28 952.1 490.148 951.518 490.148H947.36V495.444Z" fill="#00E0BA"/>
</g>
<defs>
<filter id="filter0_ddd_907_32852" x="380" y="-140" width="520" height="520" filterUnits="userSpaceOnUse" color-interpolation-filters="sRGB">
<feFlood flood-opacity="0" result="BackgroundImageFix"/>
<feColorMatrix in="SourceAlpha" type="matrix" values="0 0 0 0 0 0 0 0 0 0 0 0 0 0 0 0 0 0 127 0" result="hardAlpha"/>
<feOffset/>
<feGaussianBlur stdDeviation="50"/>
<feComposite in2="hardAlpha" operator="out"/>
<feColorMatrix type="matrix" values="0 0 0 0 0 0 0 0 0 0.878431 0 0 0 0 0.729412 0 0 0 1 0"/>
<feBlend mode="normal" in2="BackgroundImageFix" result="effect1_dropShadow_907_32852"/>
<feColorMatrix in="SourceAlpha" type="matrix" values="0 0 0 0 0 0 0 0 0 0 0 0 0 0 0 0 0 0 127 0" result="hardAlpha"/>
<feOffset/>
<feGaussianBlur stdDeviation="100"/>
<feComposite in2="hardAlpha" operator="out"/>
<feColorMatrix type="matrix" values="0 0 0 0 0 0 0 0 0 0.878431 0 0 0 0 0.729412 0 0 0 1 0"/>
<feBlend mode="normal" in2="effect1_dropShadow_907_32852" result="effect2_dropShadow_907_32852"/>
<feColorMatrix in="SourceAlpha" type="matrix" values="0 0 0 0 0 0 0 0 0 0 0 0 0 0 0 0 0 0 127 0" result="hardAlpha"/>
<feOffset/>
<feGaussianBlur stdDeviation="10"/>
<feComposite in2="hardAlpha" operator="out"/>
<feColorMatrix type="matrix" values="0 0 0 0 0 0 0 0 0 0.878431 0 0 0 0 0.729412 0 0 0 0.2 0"/>
<feBlend mode="normal" in2="effect2_dropShadow_907_32852" result="effect3_dropShadow_907_32852"/>
<feBlend mode="normal" in="SourceGraphic" in2="effect3_dropShadow_907_32852" result="shape"/>
</filter>
<linearGradient id="paint0_linear_907_32852" x1="639.5" y1="11" x2="639.5" y2="353" gradientUnits="userSpaceOnUse">
<stop stop-color="#00E0BA" stop-opacity="0"/>
<stop offset="1" stop-color="#00E0BA"/>
</linearGradient>
<linearGradient id="paint1_linear_907_32852" x1="639.5" y1="11" x2="639.5" y2="353" gradientUnits="userSpaceOnUse">
<stop offset="0.578125" stop-color="#00E0BA" stop-opacity="0"/>
<stop offset="1" stop-color="#00E0BA"/>
</linearGradient>
<radialGradient id="paint2_radial_907_32852" cx="0" cy="0" r="1" gradientUnits="userSpaceOnUse" gradientTransform="translate(639.859 350) rotate(90) scale(541.5 683.11)">
<stop stop-color="#00E0BA"/>
<stop offset="1" stop-color="#00E0BA" stop-opacity="0"/>
</radialGradient>
<radialGradient id="paint3_radial_907_32852" cx="0" cy="0" r="1" gradientUnits="userSpaceOnUse" gradientTransform="translate(639.859 350) rotate(89.9717) scale(286 428.898)">
<stop stop-color="#00E0BA"/>
<stop offset="1" stop-color="#00E0BA" stop-opacity="0"/>
</radialGradient>
<linearGradient id="paint4_linear_907_32852" x1="639.859" y1="350.252" x2="639.859" y2="907.998" gradientUnits="userSpaceOnUse">
<stop stop-color="#00E0BA"/>
<stop offset="0.708333" stop-color="#2D2D2D"/>
</linearGradient>
<clipPath id="clip0_907_32852">
<rect width="1280" height="960" fill="white"/>
</clipPath>
</defs>
</svg>
