<svg width="1280" height="649" viewBox="0 0 1280 649" fill="none" xmlns="http://www.w3.org/2000/svg">
<g clip-path="url(#clip0_632_16020)">
<g opacity="0.2">
<ellipse cx="874.5" cy="317.5" rx="792.998" ry="792.5" transform="rotate(-90 874.5 317.5)" fill="#7FCFFF" fill-opacity="0.1"/>
<path d="M874.5 -474.498C1311.63 -474.498 1666 -119.909 1666 317.5C1666 754.909 1311.63 1109.5 874.5 1109.5C437.367 1109.5 83 754.909 83 317.5C83 -119.909 437.367 -474.498 874.5 -474.498Z" stroke="url(#paint0_linear_632_16020)" stroke-opacity="0.35" stroke-width="2"/>
</g>
<g opacity="0.25">
<circle cx="978.541" cy="317.5" r="688.459" transform="rotate(-90 978.541 317.5)" fill="#7FCFFF" fill-opacity="0.1"/>
<circle cx="978.541" cy="317.5" r="687.459" transform="rotate(-90 978.541 317.5)" stroke="url(#paint1_linear_632_16020)" stroke-opacity="0.35" stroke-width="2"/>
</g>
<g opacity="0.6" filter="url(#filter0_d_632_16020)">
<ellipse cx="978.043" cy="317.5" rx="491.33" ry="491.828" transform="rotate(-90 978.043 317.5)" fill="#7FCFFF" fill-opacity="0.1" shape-rendering="crispEdges"/>
<path d="M978.043 -172.83C1249.12 -172.83 1468.87 46.6992 1468.87 317.5C1468.87 588.301 1249.12 807.83 978.043 807.83C706.965 807.83 487.215 588.301 487.215 317.5C487.215 46.6992 706.965 -172.83 978.043 -172.83Z" stroke="url(#paint2_linear_632_16020)" stroke-opacity="0.35" stroke-width="2" shape-rendering="crispEdges"/>
</g>
<circle cx="977.545" cy="318.496" r="292.209" transform="rotate(-90 977.545 318.496)" fill="#7FCFFF" fill-opacity="0.05"/>
<circle cx="977.545" cy="318.496" r="291.209" transform="rotate(-90 977.545 318.496)" stroke="url(#paint3_linear_632_16020)" stroke-opacity="0.35" stroke-width="2"/>
<path d="M892.142 220.912V216.163C892.142 214.526 890.897 213.173 889.262 213.106C879.85 212.724 849.513 212.656 830.414 226.106C829.608 226.673 829.151 227.607 829.151 228.592V237.729" stroke="#7FCFFF" stroke-width="3.14675" stroke-miterlimit="10"/>
<path d="M1060.93 220.912V216.163C1060.93 214.526 1062.18 213.173 1063.81 213.106C1073.22 212.724 1103.56 212.656 1122.66 226.106C1123.46 226.673 1123.92 227.607 1123.92 228.592V237.729" stroke="#7FCFFF" stroke-width="3.14675" stroke-miterlimit="10"/>
<g filter="url(#filter1_d_632_16020)">
<path d="M1188.2 436.167C1180.19 375.325 1163.25 309.286 1148.15 269.846C1133.37 230.1 1094.24 222.151 1057.58 222.151H895.235C858.576 222.151 819.452 230.1 804.666 269.846C789.879 309.592 772.935 375.325 764.618 436.167C759.997 466.435 782.177 484.779 801.893 486.919C821.609 489.059 845.33 481.722 857.036 451.759C868.742 422.103 873.671 396.727 898.316 396.727C919.264 396.727 1033.25 396.727 1054.19 396.727C1078.84 396.727 1083.77 422.103 1095.47 451.759C1107.18 481.416 1130.9 489.059 1150.62 486.919C1170.33 484.779 1192.82 466.435 1188.2 436.167Z" fill="white" fill-opacity="0.05" shape-rendering="crispEdges"/>
<path d="M1188.2 436.167C1180.19 375.325 1163.25 309.286 1148.15 269.846C1133.37 230.1 1094.24 222.151 1057.58 222.151H895.235C858.576 222.151 819.452 230.1 804.666 269.846C789.879 309.592 772.935 375.325 764.618 436.167C759.997 466.435 782.177 484.779 801.893 486.919C821.609 489.059 845.33 481.722 857.036 451.759C868.742 422.103 873.671 396.727 898.316 396.727C919.264 396.727 1033.25 396.727 1054.19 396.727C1078.84 396.727 1083.77 422.103 1095.47 451.759C1107.18 481.416 1130.9 489.059 1150.62 486.919C1170.33 484.779 1192.82 466.435 1188.2 436.167Z" fill="url(#paint4_radial_632_16020)" fill-opacity="0.35" shape-rendering="crispEdges"/>
<path d="M1188.2 436.167C1180.19 375.325 1163.25 309.286 1148.15 269.846C1133.37 230.1 1094.24 222.151 1057.58 222.151H895.235C858.576 222.151 819.452 230.1 804.666 269.846C789.879 309.592 772.935 375.325 764.618 436.167C759.997 466.435 782.177 484.779 801.893 486.919C821.609 489.059 845.33 481.722 857.036 451.759C868.742 422.103 873.671 396.727 898.316 396.727C919.264 396.727 1033.25 396.727 1054.19 396.727C1078.84 396.727 1083.77 422.103 1095.47 451.759C1107.18 481.416 1130.9 489.059 1150.62 486.919C1170.33 484.779 1192.82 466.435 1188.2 436.167Z" stroke="#7FCFFF" stroke-width="3.93344" stroke-miterlimit="10" shape-rendering="crispEdges"/>
</g>
<path d="M884.21 281.62H871.931C871.062 281.62 870.357 280.915 870.357 280.047V267.767C870.357 261.918 865.432 256.993 859.583 256.993C853.734 256.993 848.809 261.918 848.809 267.767V280.047C848.809 280.915 848.104 281.62 847.235 281.62H834.956C829.107 281.62 824.182 286.545 824.182 292.394C824.182 298.243 829.107 303.168 834.956 303.168H847.235C848.104 303.168 848.809 303.873 848.809 304.742V317.021C848.809 322.87 853.734 327.795 859.583 327.795C865.432 327.795 870.357 322.87 870.357 317.021V304.742C870.357 303.873 871.062 303.168 871.931 303.168H884.21C890.059 303.168 894.985 298.243 894.985 292.394C894.985 286.545 890.367 281.62 884.21 281.62Z" stroke="#7FCFFF" stroke-width="2.36006" stroke-miterlimit="10"/>
<path d="M913.647 378.598C927.55 378.598 938.821 367.327 938.821 353.424C938.821 339.52 927.55 328.25 913.647 328.25C899.744 328.25 888.473 339.52 888.473 353.424C888.473 367.327 899.744 378.598 913.647 378.598Z" stroke="#00639B" stroke-width="0.786687" stroke-miterlimit="10"/>
<path d="M913.469 372.304C923.896 372.304 932.349 363.851 932.349 353.424C932.349 342.996 923.896 334.543 913.469 334.543C903.041 334.543 894.588 342.996 894.588 353.424C894.588 363.851 903.041 372.304 913.469 372.304Z" stroke="#7FCFFF" stroke-width="2.36006" stroke-miterlimit="10"/>
<path d="M976.405 367.584C984.226 367.584 990.566 361.244 990.566 353.424C990.566 345.603 984.226 339.263 976.405 339.263C968.585 339.263 962.245 345.603 962.245 353.424C962.245 361.244 968.585 367.584 976.405 367.584Z" stroke="#7FCFFF" stroke-width="1.57337" stroke-miterlimit="10"/>
<path d="M972.787 352.157C977.214 350.16 981.084 351.364 983.151 352.373C983.345 352.468 983.577 352.37 983.645 352.165L984.25 350.352C984.321 350.14 984.223 349.909 984.022 349.81C981.471 348.564 975.414 346.577 968.726 351.283C968.553 351.405 968.492 351.633 968.578 351.827L969.989 355.003C970.084 355.217 970.329 355.321 970.549 355.241C972.164 354.649 974.607 354.028 977.139 354.393C975.426 354.684 974.049 355.288 972.991 355.937C972.802 356.053 972.728 356.29 972.815 356.493C972.815 356.493 973.377 357.778 973.683 358.481C973.76 358.656 973.99 358.697 974.121 358.558C974.446 358.215 974.806 357.965 975.098 357.796C976.466 357.001 978.357 356.413 980.913 356.548C981.113 356.559 981.296 356.434 981.359 356.245L982.005 354.307C982.069 354.113 981.994 353.899 981.822 353.79C979.926 352.592 977.006 351.594 972.775 352.162L972.787 352.157Z" fill="#C2E7FF"/>
<path d="M1039.34 378.597C1053.24 378.597 1064.51 367.326 1064.51 353.423C1064.51 339.52 1053.24 328.25 1039.34 328.25C1025.44 328.25 1014.17 339.52 1014.17 353.423C1014.17 367.326 1025.44 378.597 1039.34 378.597Z" stroke="#00639B" stroke-width="0.786687" stroke-miterlimit="10"/>
<path d="M1039.53 372.498C1049.95 372.498 1058.41 364.045 1058.41 353.618C1058.41 343.19 1049.95 334.737 1039.53 334.737C1029.1 334.737 1020.64 343.19 1020.64 353.618C1020.64 364.045 1029.1 372.498 1039.53 372.498Z" stroke="#7FCFFF" stroke-width="2.36006" stroke-miterlimit="10"/>
<path d="M934.081 269.711C938.308 269.711 941.791 266.124 941.791 261.844C941.791 257.564 938.308 253.977 934.081 253.977H922.753C918.526 253.977 915.043 257.564 915.043 261.844C915.043 266.124 918.526 269.711 922.753 269.711H934.081Z" stroke="#7FCFFF" stroke-width="1.57337" stroke-miterlimit="10"/>
<path d="M925.271 261.775C925.271 262.644 924.566 263.348 923.697 263.348C922.828 263.348 922.124 262.644 922.124 261.775C922.124 260.906 922.828 260.201 923.697 260.201C924.566 260.201 925.271 260.906 925.271 261.775Z" fill="#C2E7FF"/>
<path d="M929.991 261.775C929.991 262.644 929.286 263.348 928.418 263.348C927.549 263.348 926.844 262.644 926.844 261.775C926.844 260.906 927.549 260.201 928.418 260.201C929.286 260.201 929.991 260.906 929.991 261.775Z" fill="#C2E7FF"/>
<path d="M934.711 261.775C934.711 262.644 934.007 263.348 933.138 263.348C932.269 263.348 931.564 262.644 931.564 261.775C931.564 260.906 932.269 260.201 933.138 260.201C934.007 260.201 934.711 260.906 934.711 261.775Z" fill="#C2E7FF"/>
<path d="M946.512 302.301C951.726 302.301 955.952 298.074 955.952 292.861C955.952 287.647 951.726 283.42 946.512 283.42C941.298 283.42 937.072 287.647 937.072 292.861C937.072 298.074 941.298 302.301 946.512 302.301Z" stroke="#7FCFFF" stroke-width="1.57337" stroke-miterlimit="10"/>
<path d="M950.871 291.472C950.68 291.472 950.516 291.407 950.378 291.277C950.248 291.139 950.183 290.975 950.183 290.784C950.183 290.592 950.248 290.432 950.378 290.302C950.516 290.164 950.68 290.095 950.871 290.095C951.063 290.095 951.223 290.164 951.353 290.302C951.491 290.432 951.56 290.592 951.56 290.784C951.56 290.975 951.491 291.139 951.353 291.277C951.223 291.407 951.063 291.472 950.871 291.472ZM948.806 293.767C948.424 293.767 948.099 293.633 947.831 293.365C947.563 293.097 947.43 292.772 947.43 292.39C947.43 292.007 947.563 291.682 947.831 291.415C948.099 291.147 948.424 291.013 948.806 291.013C949.189 291.013 949.514 291.147 949.781 291.415C950.049 291.682 950.183 292.007 950.183 292.39C950.183 292.772 950.049 293.097 949.781 293.365C949.514 293.633 949.189 293.767 948.806 293.767ZM948.806 297.438C948.363 297.438 947.984 297.281 947.671 296.967C947.357 296.654 947.2 296.275 947.2 295.832C947.2 295.388 947.357 295.009 947.671 294.696C947.984 294.382 948.363 294.225 948.806 294.225C949.25 294.225 949.628 294.382 949.942 294.696C950.256 295.009 950.412 295.388 950.412 295.832C950.412 296.275 950.256 296.654 949.942 296.967C949.628 297.281 949.25 297.438 948.806 297.438ZM944.217 293.767C943.452 293.767 942.802 293.499 942.267 292.963C941.732 292.428 941.464 291.778 941.464 291.013C941.464 290.248 941.732 289.598 942.267 289.063C942.802 288.527 943.452 288.26 944.217 288.26C944.982 288.26 945.632 288.527 946.168 289.063C946.703 289.598 946.971 290.248 946.971 291.013C946.971 291.778 946.703 292.428 946.168 292.963C945.632 293.499 944.982 293.767 944.217 293.767Z" fill="#C2E7FF"/>
<path d="M1006.05 302.301C1011.26 302.301 1015.49 298.074 1015.49 292.86C1015.49 287.647 1011.26 283.42 1006.05 283.42C1000.84 283.42 996.61 287.647 996.61 292.86C996.61 298.074 1000.84 302.301 1006.05 302.301Z" stroke="#7FCFFF" stroke-width="1.57337" stroke-miterlimit="10"/>
<path d="M1001.78 296.979V294.073H1002.81V295.946H1004.68V296.979H1001.78ZM1001.78 291.61V288.719H1004.68V289.751H1002.81V291.61H1001.78ZM1007.14 296.979V295.946H1009V294.073H1010.04V296.979H1007.14ZM1009 291.61V289.751H1007.14V288.719H1010.04V291.61H1009Z" fill="#C2E7FF"/>
<path d="M1030.01 269.711C1034.24 269.711 1037.72 266.124 1037.72 261.844C1037.72 257.564 1034.24 253.977 1030.01 253.977H1018.68C1014.45 253.977 1010.97 257.564 1010.97 261.844C1010.97 266.124 1014.45 269.711 1018.68 269.711H1030.01Z" stroke="#7FCFFF" stroke-width="1.57337" stroke-miterlimit="10"/>
<path d="M1019.38 265.118V264.115H1029.41V265.118H1019.38ZM1019.38 262.276V261.273H1029.41V262.276H1019.38ZM1019.38 259.434V258.431H1029.41V259.434H1019.38Z" fill="#C2E7FF"/>
<path d="M1097.06 332.183C1104.45 332.183 1110.44 326.196 1110.44 318.809C1110.44 311.423 1104.45 305.436 1097.06 305.436C1089.68 305.436 1083.69 311.423 1083.69 318.809C1083.69 326.196 1089.68 332.183 1097.06 332.183Z" stroke="#7FCFFF" stroke-width="1.57337" stroke-miterlimit="10"/>
<path d="M1093.17 323.136L1096.56 314.124H1098.14L1101.55 323.136H1100.03L1099.2 320.82H1095.52L1094.69 323.136H1093.17ZM1098.73 319.536L1097.74 316.78L1097.4 315.748H1097.32L1096.98 316.78L1095.99 319.536H1098.73Z" fill="#C2E7FF"/>
<path d="M1070.41 305.406C1077.8 305.406 1083.79 299.418 1083.79 292.032C1083.79 284.646 1077.8 278.659 1070.41 278.659C1063.03 278.659 1057.04 284.646 1057.04 292.032C1057.04 299.418 1063.03 305.406 1070.41 305.406Z" stroke="#7FCFFF" stroke-width="1.57337" stroke-miterlimit="10"/>
<path d="M1066.68 287.377H1068.38L1070.38 290.611H1070.46L1072.47 287.377H1074.16L1071.35 291.706L1074.36 296.389H1072.67L1070.46 292.877H1070.38L1068.17 296.389H1066.48L1069.49 291.706L1066.68 287.377Z" fill="#C2E7FF"/>
<path d="M1097.06 278.688C1104.45 278.688 1110.44 272.701 1110.44 265.315C1110.44 257.929 1104.45 251.941 1097.06 251.941C1089.68 251.941 1083.69 257.929 1083.69 265.315C1083.69 272.701 1089.68 278.688 1097.06 278.688Z" stroke="#7FCFFF" stroke-width="1.57337" stroke-miterlimit="10"/>
<path d="M1096.51 269.607V265.428L1093.46 260.595H1095.1L1097.15 263.993H1097.22L1099.23 260.595H1100.87L1097.88 265.428V269.607H1096.51Z" fill="#C2E7FF"/>
<path d="M1123.91 305.406C1131.3 305.406 1137.28 299.418 1137.28 292.032C1137.28 284.646 1131.3 278.659 1123.91 278.659C1116.52 278.659 1110.54 284.646 1110.54 292.032C1110.54 299.418 1116.52 305.406 1123.91 305.406Z" stroke="#7FCFFF" stroke-width="1.57337" stroke-miterlimit="10"/>
<path d="M1121.19 296.389V287.377H1124.56C1125.05 287.377 1125.5 287.481 1125.91 287.691C1126.31 287.901 1126.63 288.186 1126.86 288.547C1127.11 288.908 1127.23 289.315 1127.23 289.768C1127.23 290.23 1127.11 290.624 1126.89 290.951C1126.66 291.279 1126.37 291.526 1126.01 291.694V291.757C1126.46 291.908 1126.83 292.168 1127.11 292.537C1127.4 292.906 1127.54 293.347 1127.54 293.859C1127.54 294.362 1127.41 294.803 1127.15 295.18C1126.9 295.558 1126.56 295.856 1126.12 296.074C1125.69 296.284 1125.22 296.389 1124.71 296.389H1121.19ZM1122.57 292.399V295.105H1124.71C1125.01 295.105 1125.27 295.042 1125.49 294.916C1125.71 294.79 1125.87 294.622 1125.98 294.413C1126.1 294.203 1126.16 293.985 1126.16 293.758C1126.16 293.515 1126.1 293.292 1125.98 293.091C1125.86 292.881 1125.69 292.713 1125.47 292.588C1125.25 292.462 1124.98 292.399 1124.66 292.399H1122.57ZM1122.57 291.165H1124.5C1124.79 291.165 1125.04 291.107 1125.24 290.989C1125.45 290.863 1125.61 290.704 1125.72 290.511C1125.83 290.309 1125.88 290.104 1125.88 289.894C1125.88 289.684 1125.83 289.487 1125.72 289.302C1125.62 289.109 1125.47 288.954 1125.26 288.837C1125.06 288.711 1124.82 288.648 1124.55 288.648H1122.57V291.165Z" fill="#C2E7FF"/>
<g filter="url(#filter2_d_632_16020)">
<path d="M634.668 155.787C631.234 155.137 625.223 154.333 617.938 150.127C610.653 145.921 606.666 140.953 604.243 138.221" stroke="#7FCFFF" stroke-width="3.95844"/>
<path d="M608.689 200.781C605.255 200.131 599.244 199.327 591.96 195.121C584.675 190.915 580.687 185.947 578.265 183.215" stroke="#7FCFFF" stroke-width="3.95844"/>
<path d="M574.273 204.905L591.479 214.839C592.817 215.611 594.482 215.546 595.67 214.558C602.148 209.177 615.238 195.382 628.701 172.063C642.065 148.917 642.199 126.815 640.141 115.784C639.757 113.726 637.699 112.538 635.726 113.235C625.143 116.968 606.07 128.135 592.706 151.282C579.243 174.601 573.842 192.834 572.42 201.135C572.159 202.658 572.935 204.132 574.273 204.905Z" stroke="white" stroke-width="3.95844"/>
<circle r="10.3909" transform="matrix(-0.866025 -0.5 -0.5 0.866025 608.289 166.839)" stroke="white" stroke-width="3.95844"/>
<path d="M634.572 123.425C634.792 125.759 634.924 131.77 633.696 137.145" stroke="white" stroke-width="2.96883" stroke-linecap="round"/>
<path d="M592.088 207.765L581.247 201.972C579.79 201.194 578.995 199.594 579.462 198.01C579.974 196.276 580.609 194.475 580.735 193.782" stroke="white" stroke-width="2.96883" stroke-linecap="round"/>
<path d="M560.786 178.647C563.091 175.656 574.118 169.823 580.984 167.352C582.5 166.806 583.694 168.231 583.018 169.664L579.521 177.083L575.546 187.929L572.781 199.232C572.669 199.692 572.391 200.1 571.999 200.383L552.487 214.441C550.805 215.653 548.311 213.811 548.992 211.892C553.118 200.258 558.565 181.53 560.786 178.647Z" stroke="white" stroke-width="2.96883" stroke-linecap="round" stroke-linejoin="round"/>
<path d="M621.273 213.569C622.711 210.077 622.249 197.611 620.956 190.43C620.67 188.844 618.839 188.522 617.936 189.824L613.26 196.562L605.855 205.428L597.448 213.473C597.106 213.8 596.891 214.245 596.843 214.726L594.424 238.654C594.215 240.716 597.057 241.955 598.379 240.406C606.391 231.015 619.887 216.934 621.273 213.569Z" stroke="white" stroke-width="2.96883" stroke-linecap="round" stroke-linejoin="round"/>
</g>
<path d="M571.601 216.689C557.746 229.884 521.229 259.143 485.999 270.623" stroke="white" stroke-width="2.96883" stroke-linecap="round"/>
<path d="M570.61 230.544C562.199 240.77 540.229 264.586 519.645 278.045" stroke="#7FCFFF" stroke-width="2.96883" stroke-linecap="round"/>
<path d="M592.319 117.877L590.654 108.173L600.407 106.174L602.072 115.878L592.319 117.877Z" fill="#7FCFFF"/>
<path d="M519.203 210.492L520.273 216.725L526.562 215.436L525.492 209.203L519.203 210.492Z" stroke="#7FCFFF" stroke-width="2.95034"/>
<path d="M646.207 194.933L648.335 200.548C649.839 199.932 651.534 200.688 652.119 202.231C652.711 203.782 651.961 205.54 650.463 206.156L652.591 211.771C657.09 209.915 659.328 204.635 657.566 199.99C655.812 195.346 650.713 193.077 646.207 194.933Z" fill="#E8EAED"/>
<path d="M670.326 110.74L671.369 115.589L674.686 111.658L674.686 111.658L674.695 111.648C675.117 111.16 675.694 110.975 676.215 110.927L676.302 110.919L676.389 110.925L681.407 111.288L678.85 107.185C678.67 106.938 678.534 106.63 678.512 106.27C678.49 105.909 678.586 105.581 678.735 105.302L680.762 100.774L675.904 102.043C675.488 102.191 675.111 102.13 674.856 102.05C674.618 101.975 674.398 101.854 674.275 101.786C674.267 101.782 674.259 101.778 674.252 101.774L674.156 101.721L674.072 101.648L670.313 98.3733L669.873 103.36C669.874 104.006 669.502 104.654 668.879 104.965L664.617 107.558L669.147 109.337C669.801 109.529 670.248 110.101 670.326 110.74Z" fill="#00E0BA" stroke="#00E0BA" stroke-width="2.13448"/>
<path d="M635.263 67.9713L638.469 69.2299C638.645 69.2711 638.771 69.4323 638.782 69.6042L639.511 72.994C639.597 73.447 640.183 73.5655 640.508 73.1897L642.776 70.5015C642.884 70.3762 643.054 70.3029 643.284 70.2815L646.776 70.534C647.24 70.5486 647.558 70.0581 647.303 69.6784L645.503 66.7912C645.378 66.63 645.367 66.4581 645.472 66.2755L646.898 63.0892C647.104 62.6667 646.727 62.1831 646.273 62.3404L642.852 63.2339C642.683 63.3073 642.503 63.2087 642.323 63.1101L639.752 60.8707C639.385 60.5589 638.82 60.7843 638.79 61.248L638.483 64.7339C638.493 64.9058 638.389 65.0884 638.219 65.1617L635.204 66.9972C634.811 67.2065 634.846 67.7795 635.263 67.9713Z" fill="white"/>
<path d="M541.469 146.837L542.096 149.748L544.09 147.385L544.09 147.385L544.095 147.378C544.372 147.058 544.749 146.939 545.083 146.908L545.142 146.903L545.201 146.907L548.216 147.125L546.682 144.665C546.565 144.503 546.477 144.302 546.462 144.066C546.448 143.829 546.511 143.614 546.607 143.433L547.823 140.717L544.907 141.479C544.634 141.575 544.386 141.535 544.22 141.483C544.066 141.434 543.925 141.356 543.848 141.314C543.843 141.311 543.838 141.309 543.833 141.306L543.768 141.27L543.712 141.221L541.452 139.253L541.188 142.246C541.187 142.669 540.944 143.092 540.537 143.296L537.98 144.852L540.697 145.919C541.125 146.046 541.417 146.419 541.469 146.837Z" fill="#00E0BA" stroke="#00E0BA" stroke-width="1.44623"/>
<path d="M701.005 144.952L699.811 137.992L706.806 136.558L708 143.518L701.005 144.952Z" fill="#7FCFFF"/>
<g filter="url(#filter3_d_632_16020)">
<rect x="120.367" y="204.538" width="338.37" height="179.754" stroke="#FC4917" stroke-width="9.13781"/>
<mask id="path-53-outside-1_632_16020" maskUnits="userSpaceOnUse" x="106.554" y="182.479" width="362" height="213" fill="black">
<rect fill="white" x="106.554" y="182.479" width="362" height="213"/>
<path d="M108.554 190.571C108.554 187.206 111.281 184.479 114.646 184.479H460.185C463.55 184.479 466.277 187.206 466.277 190.571V387.152C466.277 390.516 463.55 393.244 460.185 393.244H114.646C111.281 393.244 108.554 390.516 108.554 387.152V190.571Z"/>
</mask>
<path d="M108.554 190.571C108.554 187.206 111.281 184.479 114.646 184.479H460.185C463.55 184.479 466.277 187.206 466.277 190.571V387.152C466.277 390.516 463.55 393.244 460.185 393.244H114.646C111.281 393.244 108.554 390.516 108.554 387.152V190.571Z" fill="#1E1E20"/>
<path d="M114.646 186.117H460.185V182.841H114.646V186.117ZM464.639 190.571V387.152H467.915V190.571H464.639ZM460.185 391.606H114.646V394.882H460.185V391.606ZM110.192 387.152V190.571H106.916V387.152H110.192ZM114.646 391.606C112.186 391.606 110.192 389.612 110.192 387.152H106.916C106.916 391.421 110.377 394.882 114.646 394.882V391.606ZM464.639 387.152C464.639 389.612 462.645 391.606 460.185 391.606V394.882C464.454 394.882 467.915 391.421 467.915 387.152H464.639ZM460.185 186.117C462.645 186.117 464.639 188.111 464.639 190.571H467.915C467.915 186.302 464.454 182.841 460.185 182.841V186.117ZM114.646 182.841C110.377 182.841 106.916 186.302 106.916 190.571H110.192C110.192 188.111 112.186 186.117 114.646 186.117V182.841Z" fill="#444746" mask="url(#path-53-outside-1_632_16020)"/>
<mask id="path-55-outside-2_632_16020" maskUnits="userSpaceOnUse" x="104.554" y="189.097" width="365" height="254" fill="black">
<rect fill="white" x="104.554" y="189.097" width="365" height="254"/>
<path fill-rule="evenodd" clip-rule="evenodd" d="M108.554 197.666C108.554 195.142 110.599 193.097 113.123 193.097H461.708C464.232 193.097 466.277 195.142 466.277 197.666V397.293C466.277 399.816 464.232 401.862 461.708 401.862H318.248V418.54H364.379C365.208 418.54 366.001 418.878 366.576 419.476L380.714 434.186C382.574 436.122 381.202 439.343 378.517 439.343H196.315C193.63 439.343 192.259 436.122 194.119 434.186L208.257 419.476C208.831 418.878 209.624 418.54 210.453 418.54H256.398V401.862H113.123C110.599 401.862 108.554 399.816 108.554 397.293V197.666Z"/>
</mask>
<path fill-rule="evenodd" clip-rule="evenodd" d="M108.554 197.666C108.554 195.142 110.599 193.097 113.123 193.097H461.708C464.232 193.097 466.277 195.142 466.277 197.666V397.293C466.277 399.816 464.232 401.862 461.708 401.862H318.248V418.54H364.379C365.208 418.54 366.001 418.878 366.576 419.476L380.714 434.186C382.574 436.122 381.202 439.343 378.517 439.343H196.315C193.63 439.343 192.259 436.122 194.119 434.186L208.257 419.476C208.831 418.878 209.624 418.54 210.453 418.54H256.398V401.862H113.123C110.599 401.862 108.554 399.816 108.554 397.293V197.666Z" fill="#1E1E20"/>
<path d="M318.248 401.862V398.816H315.202V401.862H318.248ZM318.248 418.54H315.202V421.586H318.248V418.54ZM366.576 419.476L364.379 421.586L364.379 421.586L366.576 419.476ZM380.714 434.186L382.91 432.075L380.714 434.186ZM194.119 434.186L196.315 436.297H196.315L194.119 434.186ZM208.257 419.476L210.453 421.586V421.586L208.257 419.476ZM256.398 418.54V421.586H259.444V418.54H256.398ZM256.398 401.862H259.444V398.816H256.398V401.862ZM113.123 190.051C108.917 190.051 105.508 193.46 105.508 197.666H111.6C111.6 196.825 112.282 196.143 113.123 196.143V190.051ZM461.708 190.051H113.123V196.143H461.708V190.051ZM469.323 197.666C469.323 193.46 465.914 190.051 461.708 190.051V196.143C462.549 196.143 463.231 196.825 463.231 197.666H469.323ZM469.323 397.293V197.666H463.231V397.293H469.323ZM461.708 404.908C465.914 404.908 469.323 401.498 469.323 397.293H463.231C463.231 398.134 462.549 398.816 461.708 398.816V404.908ZM318.248 404.908H461.708V398.816H318.248V404.908ZM321.294 418.54V401.862H315.202V418.54H321.294ZM364.379 415.494H318.248V421.586H364.379V415.494ZM368.772 417.365C367.623 416.17 366.037 415.494 364.379 415.494V421.586L364.379 421.586L368.772 417.365ZM382.91 432.075L368.772 417.365L364.379 421.586L378.517 436.297L382.91 432.075ZM378.517 442.388C383.887 442.388 386.63 435.946 382.91 432.075L378.517 436.297C378.528 436.308 378.533 436.314 378.534 436.317C378.536 436.319 378.535 436.318 378.533 436.314C378.532 436.311 378.53 436.306 378.528 436.3C378.526 436.295 378.525 436.29 378.524 436.285C378.523 436.276 378.524 436.273 378.523 436.276C378.523 436.28 378.521 436.287 378.517 436.297C378.513 436.306 378.509 436.312 378.507 436.315C378.505 436.317 378.507 436.315 378.514 436.309C378.518 436.307 378.522 436.304 378.527 436.302C378.533 436.299 378.538 436.297 378.541 436.296C378.545 436.295 378.546 436.295 378.544 436.295C378.541 436.295 378.533 436.297 378.517 436.297V442.388ZM196.315 442.388H378.517V436.297H196.315V442.388ZM191.923 432.075C188.202 435.946 190.946 442.388 196.315 442.388V436.297C196.3 436.297 196.291 436.295 196.289 436.295C196.286 436.295 196.287 436.295 196.291 436.296C196.295 436.297 196.3 436.299 196.305 436.302C196.31 436.304 196.315 436.307 196.318 436.309C196.326 436.315 196.327 436.317 196.325 436.315C196.323 436.312 196.319 436.306 196.315 436.297C196.311 436.287 196.309 436.28 196.309 436.276C196.309 436.273 196.309 436.276 196.308 436.285C196.307 436.29 196.306 436.295 196.304 436.3C196.303 436.306 196.301 436.311 196.299 436.314C196.297 436.318 196.296 436.319 196.298 436.317C196.299 436.314 196.304 436.308 196.315 436.297L191.923 432.075ZM206.061 417.365L191.923 432.075L196.315 436.297L210.453 421.586L206.061 417.365ZM210.453 415.494C208.795 415.494 207.209 416.17 206.061 417.365L210.453 421.586V421.586V415.494ZM256.398 415.494H210.453V421.586H256.398V415.494ZM253.352 401.862V418.54H259.444V401.862H253.352ZM113.123 404.908H256.398V398.816H113.123V404.908ZM105.508 397.293C105.508 401.498 108.917 404.908 113.123 404.908V398.816C112.282 398.816 111.6 398.134 111.6 397.293H105.508ZM105.508 197.666V397.293H111.6V197.666H105.508Z" fill="#C2E7FF" mask="url(#path-55-outside-2_632_16020)"/>
<path d="M205.502 429.677C205.502 429.677 198.95 434.246 204.488 434.246C208.154 434.246 317.722 434.246 369.2 434.246C374.893 434.246 368.493 429.677 368.493 429.677" stroke="#444746" stroke-width="1.63787" stroke-linecap="round"/>
<rect x="121.965" y="206.507" width="330.904" height="181.945" rx="5.02853" stroke="#7FCFFF" stroke-width="3.04594"/>
<mask id="path-59-inside-3_632_16020" fill="white">
<path d="M338.055 310.332C338.055 306.968 340.782 304.24 344.147 304.24H525.845C529.21 304.24 531.937 306.968 531.937 310.332V435.89H338.055V310.332Z"/>
</mask>
<path d="M338.055 310.332C338.055 306.968 340.782 304.24 344.147 304.24H525.845C529.21 304.24 531.937 306.968 531.937 310.332V435.89H338.055V310.332Z" fill="#1E1E20"/>
<path d="M531.937 435.89V437.528H533.575V435.89H531.937ZM338.055 435.89H336.417V437.528H338.055V435.89ZM344.147 305.878H525.845V302.602H344.147V305.878ZM530.299 310.332V435.89H533.575V310.332H530.299ZM531.937 434.252H338.055V437.528H531.937V434.252ZM339.693 435.89V310.332H336.417V435.89H339.693ZM525.845 305.878C528.305 305.878 530.299 307.872 530.299 310.332H533.575C533.575 306.063 530.114 302.602 525.845 302.602V305.878ZM344.147 302.602C339.878 302.602 336.417 306.063 336.417 310.332H339.693C339.693 307.872 341.687 305.878 344.147 305.878V302.602Z" fill="#444746" mask="url(#path-59-inside-3_632_16020)"/>
<mask id="path-61-inside-4_632_16020" fill="white">
<path fill-rule="evenodd" clip-rule="evenodd" d="M344.232 312.524C340.868 312.524 338.141 315.251 338.141 318.616V443.281H338.144C337.398 443.822 336.771 444.534 336.327 445.38L317.933 480.408C315.803 484.465 318.745 489.333 323.327 489.333H546.842C551.424 489.333 554.366 484.465 552.236 480.408L533.842 445.38C533.398 444.534 532.771 443.822 532.025 443.281H532.047V318.616C532.047 315.251 529.319 312.524 525.955 312.524H344.232Z"/>
</mask>
<path fill-rule="evenodd" clip-rule="evenodd" d="M344.232 312.524C340.868 312.524 338.141 315.251 338.141 318.616V443.281H338.144C337.398 443.822 336.771 444.534 336.327 445.38L317.933 480.408C315.803 484.465 318.745 489.333 323.327 489.333H546.842C551.424 489.333 554.366 484.465 552.236 480.408L533.842 445.38C533.398 444.534 532.771 443.822 532.025 443.281H532.047V318.616C532.047 315.251 529.319 312.524 525.955 312.524H344.232Z" fill="#1E1E20"/>
<path d="M338.141 443.281H335.095V446.326H338.141V443.281ZM338.144 443.281L339.932 445.747L347.536 440.235H338.144V443.281ZM336.327 445.38L333.63 443.964L333.63 443.964L336.327 445.38ZM317.933 480.408L320.63 481.825H320.63L317.933 480.408ZM552.236 480.408L549.539 481.825V481.825L552.236 480.408ZM533.842 445.38L536.539 443.964V443.964L533.842 445.38ZM532.025 443.281V440.235H522.633L530.237 445.747L532.025 443.281ZM532.047 443.281V446.326H535.093V443.281H532.047ZM341.187 318.616C341.187 316.933 342.55 315.57 344.232 315.57V309.478C339.186 309.478 335.095 313.569 335.095 318.616H341.187ZM341.187 443.281V318.616H335.095V443.281H341.187ZM338.144 440.235H338.141V446.326H338.144V440.235ZM336.357 440.814C335.237 441.626 334.297 442.696 333.63 443.964L339.024 446.796C339.246 446.373 339.559 446.017 339.932 445.747L336.357 440.814ZM333.63 443.964L315.237 478.992L320.63 481.825L339.024 446.796L333.63 443.964ZM315.237 478.992C312.041 485.077 316.454 492.378 323.327 492.378V486.287C321.036 486.287 319.565 483.853 320.63 481.825L315.237 478.992ZM323.327 492.378H546.842V486.287H323.327V492.378ZM546.842 492.378C553.715 492.378 558.128 485.077 554.933 478.992L549.539 481.825C550.604 483.853 549.133 486.287 546.842 486.287V492.378ZM554.933 478.992L536.539 443.964L531.145 446.796L549.539 481.825L554.933 478.992ZM536.539 443.964C535.873 442.696 534.932 441.626 533.812 440.814L530.237 445.747C530.61 446.017 530.923 446.373 531.145 446.796L536.539 443.964ZM532.047 440.235H532.025V446.326H532.047V440.235ZM529.001 318.616V443.281H535.093V318.616H529.001ZM525.955 315.57C527.637 315.57 529.001 316.933 529.001 318.616H535.093C535.093 313.569 531.002 309.478 525.955 309.478V315.57ZM344.232 315.57H525.955V309.478H344.232V315.57Z" fill="#C2E7FF" mask="url(#path-61-inside-4_632_16020)"/>
<path d="M344.498 455.821H525.646C527.333 455.821 528.407 454.019 527.605 452.535L524.094 446.037C523.705 445.317 522.953 444.869 522.135 444.869H348.009C347.191 444.869 346.438 445.317 346.049 446.037L342.538 452.535C341.737 454.019 342.811 455.821 344.498 455.821Z" stroke="#444746" stroke-width="1.63787"/>
<path d="M403.421 472.703H466.853C468.324 472.703 469.391 471.303 469 469.885L467.246 463.519C466.979 462.553 466.101 461.884 465.099 461.884H405.175C404.173 461.884 403.295 462.553 403.028 463.519L401.274 469.885C400.883 471.303 401.95 472.703 403.421 472.703Z" stroke="#444746" stroke-width="1.63787"/>
<rect x="349.394" y="324.777" width="171.223" height="104.298" rx="5.02853" stroke="#7FCFFF" stroke-width="3.04594"/>
<g filter="url(#filter4_d_632_16020)">
<path d="M430.897 391.341V380.138L424.116 386.919L422.053 384.855L430.308 376.6L422.053 368.345L424.116 366.281L430.897 373.062V361.859H432.371L440.774 370.261L434.435 376.6L440.774 382.939L432.371 391.341H430.897ZM433.845 373.062L436.646 370.261L433.845 367.534V373.062ZM433.845 385.666L436.646 382.939L433.845 380.138V385.666ZM442.027 380.064L438.636 376.6L442.027 373.21C442.248 373.75 442.42 374.303 442.543 374.868C442.69 375.433 442.764 376.01 442.764 376.6C442.764 377.19 442.69 377.779 442.543 378.369C442.42 378.934 442.248 379.499 442.027 380.064ZM446.375 384.265L444.533 382.496C445.024 381.587 445.405 380.641 445.675 379.659C445.945 378.651 446.08 377.632 446.08 376.6C446.08 375.568 445.945 374.561 445.675 373.578C445.405 372.571 445.024 371.613 444.533 370.704L446.375 368.861C447.088 370.04 447.628 371.281 447.997 372.583C448.39 373.885 448.586 375.224 448.586 376.6C448.586 377.976 448.39 379.315 447.997 380.617C447.628 381.894 447.088 383.111 446.375 384.265Z" fill="#7FCFFF"/>
</g>
<g filter="url(#filter5_d_632_16020)">
<path d="M281.003 313.871V298.933L271.962 307.974L269.21 305.223L280.216 294.216L269.21 283.21L271.962 280.458L281.003 289.499V274.562H282.968L294.171 285.765L285.72 294.216L294.171 302.668L282.968 313.871H281.003ZM284.934 289.499L288.668 285.765L284.934 282.129V289.499ZM284.934 306.304L288.668 302.668L284.934 298.933V306.304ZM295.842 298.835L291.321 294.216L295.842 289.696C296.137 290.416 296.366 291.153 296.53 291.907C296.726 292.66 296.825 293.43 296.825 294.216C296.825 295.002 296.726 295.789 296.53 296.575C296.366 297.328 296.137 298.082 295.842 298.835ZM301.64 304.437L299.183 302.078C299.838 300.866 300.346 299.605 300.706 298.295C301.067 296.952 301.247 295.592 301.247 294.216C301.247 292.84 301.067 291.497 300.706 290.187C300.346 288.844 299.838 287.567 299.183 286.355L301.64 283.898C302.59 285.47 303.31 287.124 303.802 288.86C304.326 290.597 304.588 292.382 304.588 294.216C304.588 296.051 304.326 297.836 303.802 299.572C303.31 301.276 302.59 302.897 301.64 304.437Z" fill="#7FCFFF"/>
</g>
<rect x="71.8189" y="326.604" width="73.6324" height="153.17" rx="5.27294" fill="#1E1E20" stroke="#444746" stroke-width="1.63787"/>
<rect x="72.523" y="335.315" width="72.2243" height="151.762" rx="4.5689" fill="#1E1E20" stroke="#C2E7FF" stroke-width="3.04594"/>
<rect x="78.6154" y="349.074" width="60.6889" height="120.085" rx="4.91362" stroke="#7FCFFF" stroke-width="3.27575"/>
<rect x="98.502" y="341.342" width="22.1662" height="1.42243" rx="0.711215" fill="#444746"/>
<g filter="url(#filter6_d_632_16020)">
<path d="M104.657 423.608V412.405L97.8762 419.186L95.8125 417.122L104.067 408.867L95.8125 400.613L97.8762 398.549L104.657 405.33V394.127H106.131L114.533 402.529L108.195 408.867L114.533 415.206L106.131 423.608H104.657ZM107.605 405.33L110.406 402.529L107.605 399.802V405.33ZM107.605 417.933L110.406 415.206L107.605 412.405V417.933ZM115.786 412.332L112.396 408.867L115.786 405.477C116.007 406.018 116.179 406.57 116.302 407.135C116.45 407.701 116.523 408.278 116.523 408.867C116.523 409.457 116.45 410.047 116.302 410.636C116.179 411.201 116.007 411.767 115.786 412.332ZM120.135 416.533L118.292 414.764C118.784 413.855 119.164 412.909 119.435 411.926C119.705 410.919 119.84 409.899 119.84 408.867C119.84 407.836 119.705 406.828 119.435 405.846C119.164 404.838 118.784 403.88 118.292 402.971L120.135 401.129C120.847 402.308 121.388 403.548 121.756 404.851C122.15 406.153 122.346 407.492 122.346 408.867C122.346 410.243 122.15 411.582 121.756 412.884C121.388 414.162 120.847 415.378 120.135 416.533Z" fill="#7FCFFF"/>
</g>
</g>
<g filter="url(#filter7_d_632_16020)">
<path d="M965.333 178.111V151.089L948.978 167.444L944 162.467L963.911 142.556L944 122.644L948.978 117.667L965.333 134.022V107H968.889L989.156 127.267L973.867 142.556L989.156 157.844L968.889 178.111H965.333ZM972.444 134.022L979.2 127.267L972.444 120.689V134.022ZM972.444 164.422L979.2 157.844L972.444 151.089V164.422ZM992.178 150.911L984 142.556L992.178 134.378C992.711 135.681 993.126 137.015 993.422 138.378C993.778 139.741 993.956 141.133 993.956 142.556C993.956 143.978 993.778 145.4 993.422 146.822C993.126 148.185 992.711 149.548 992.178 150.911ZM1002.67 161.044L998.222 156.778C999.407 154.585 1000.33 152.304 1000.98 149.933C1001.63 147.504 1001.96 145.044 1001.96 142.556C1001.96 140.067 1001.63 137.637 1000.98 135.267C1000.33 132.837 999.407 130.526 998.222 128.333L1002.67 123.889C1004.39 126.733 1005.69 129.726 1006.58 132.867C1007.53 136.007 1008 139.237 1008 142.556C1008 145.874 1007.53 149.104 1006.58 152.244C1005.69 155.326 1004.39 158.259 1002.67 161.044Z" fill="#7FCFFF"/>
</g>
</g>
<defs>
<filter id="filter0_d_632_16020" x="286.215" y="-373.83" width="1383.66" height="1382.66" filterUnits="userSpaceOnUse" color-interpolation-filters="sRGB">
<feFlood flood-opacity="0" result="BackgroundImageFix"/>
<feColorMatrix in="SourceAlpha" type="matrix" values="0 0 0 0 0 0 0 0 0 0 0 0 0 0 0 0 0 0 127 0" result="hardAlpha"/>
<feOffset/>
<feGaussianBlur stdDeviation="100"/>
<feComposite in2="hardAlpha" operator="out"/>
<feColorMatrix type="matrix" values="0 0 0 0 0 0 0 0 0 0 0 0 0 0 0 0 0 0 0.1 0"/>
<feBlend mode="normal" in2="BackgroundImageFix" result="effect1_dropShadow_632_16020"/>
<feBlend mode="normal" in="SourceGraphic" in2="effect1_dropShadow_632_16020" result="shape"/>
</filter>
<filter id="filter1_d_632_16020" x="642.031" y="100.184" width="668.749" height="509.047" filterUnits="userSpaceOnUse" color-interpolation-filters="sRGB">
<feFlood flood-opacity="0" result="BackgroundImageFix"/>
<feColorMatrix in="SourceAlpha" type="matrix" values="0 0 0 0 0 0 0 0 0 0 0 0 0 0 0 0 0 0 127 0" result="hardAlpha"/>
<feOffset/>
<feGaussianBlur stdDeviation="60"/>
<feComposite in2="hardAlpha" operator="out"/>
<feColorMatrix type="matrix" values="0 0 0 0 0.498039 0 0 0 0 0.811765 0 0 0 0 1 0 0 0 0.15 0"/>
<feBlend mode="normal" in2="BackgroundImageFix" result="effect1_dropShadow_632_16020"/>
<feBlend mode="normal" in="SourceGraphic" in2="effect1_dropShadow_632_16020" result="shape"/>
</filter>
<filter id="filter2_d_632_16020" x="434.838" y="-1.47729" width="320.785" height="356.617" filterUnits="userSpaceOnUse" color-interpolation-filters="sRGB">
<feFlood flood-opacity="0" result="BackgroundImageFix"/>
<feColorMatrix in="SourceAlpha" type="matrix" values="0 0 0 0 0 0 0 0 0 0 0 0 0 0 0 0 0 0 127 0" result="hardAlpha"/>
<feOffset/>
<feGaussianBlur stdDeviation="56.266"/>
<feComposite in2="hardAlpha" operator="out"/>
<feColorMatrix type="matrix" values="0 0 0 0 1 0 0 0 0 1 0 0 0 0 1 0 0 0 1 0"/>
<feBlend mode="normal" in2="BackgroundImageFix" result="effect1_dropShadow_632_16020"/>
<feBlend mode="normal" in="SourceGraphic" in2="effect1_dropShadow_632_16020" result="shape"/>
</filter>
<filter id="filter3_d_632_16020" x="-49" y="82.8409" width="721.942" height="546.492" filterUnits="userSpaceOnUse" color-interpolation-filters="sRGB">
<feFlood flood-opacity="0" result="BackgroundImageFix"/>
<feColorMatrix in="SourceAlpha" type="matrix" values="0 0 0 0 0 0 0 0 0 0 0 0 0 0 0 0 0 0 127 0" result="hardAlpha"/>
<feOffset dy="20"/>
<feGaussianBlur stdDeviation="60"/>
<feComposite in2="hardAlpha" operator="out"/>
<feColorMatrix type="matrix" values="0 0 0 0 0 0 0 0 0 0 0 0 0 0 0 0 0 0 0.8 0"/>
<feBlend mode="normal" in2="BackgroundImageFix" result="effect1_dropShadow_632_16020"/>
<feBlend mode="normal" in="SourceGraphic" in2="effect1_dropShadow_632_16020" result="shape"/>
</filter>
<filter id="filter4_d_632_16020" x="372.053" y="311.859" width="126.533" height="129.482" filterUnits="userSpaceOnUse" color-interpolation-filters="sRGB">
<feFlood flood-opacity="0" result="BackgroundImageFix"/>
<feColorMatrix in="SourceAlpha" type="matrix" values="0 0 0 0 0 0 0 0 0 0 0 0 0 0 0 0 0 0 127 0" result="hardAlpha"/>
<feOffset/>
<feGaussianBlur stdDeviation="25"/>
<feComposite in2="hardAlpha" operator="out"/>
<feColorMatrix type="matrix" values="0 0 0 0 0.498039 0 0 0 0 0.811765 0 0 0 0 1 0 0 0 0.5 0"/>
<feBlend mode="normal" in2="BackgroundImageFix" result="effect1_dropShadow_632_16020"/>
<feBlend mode="normal" in="SourceGraphic" in2="effect1_dropShadow_632_16020" result="shape"/>
</filter>
<filter id="filter5_d_632_16020" x="219.21" y="224.562" width="135.378" height="139.309" filterUnits="userSpaceOnUse" color-interpolation-filters="sRGB">
<feFlood flood-opacity="0" result="BackgroundImageFix"/>
<feColorMatrix in="SourceAlpha" type="matrix" values="0 0 0 0 0 0 0 0 0 0 0 0 0 0 0 0 0 0 127 0" result="hardAlpha"/>
<feOffset/>
<feGaussianBlur stdDeviation="25"/>
<feComposite in2="hardAlpha" operator="out"/>
<feColorMatrix type="matrix" values="0 0 0 0 0.498039 0 0 0 0 0.811765 0 0 0 0 1 0 0 0 0.5 0"/>
<feBlend mode="normal" in2="BackgroundImageFix" result="effect1_dropShadow_632_16020"/>
<feBlend mode="normal" in="SourceGraphic" in2="effect1_dropShadow_632_16020" result="shape"/>
</filter>
<filter id="filter6_d_632_16020" x="45.8125" y="344.127" width="126.533" height="129.482" filterUnits="userSpaceOnUse" color-interpolation-filters="sRGB">
<feFlood flood-opacity="0" result="BackgroundImageFix"/>
<feColorMatrix in="SourceAlpha" type="matrix" values="0 0 0 0 0 0 0 0 0 0 0 0 0 0 0 0 0 0 127 0" result="hardAlpha"/>
<feOffset/>
<feGaussianBlur stdDeviation="25"/>
<feComposite in2="hardAlpha" operator="out"/>
<feColorMatrix type="matrix" values="0 0 0 0 0.498039 0 0 0 0 0.811765 0 0 0 0 1 0 0 0 0.5 0"/>
<feBlend mode="normal" in2="BackgroundImageFix" result="effect1_dropShadow_632_16020"/>
<feBlend mode="normal" in="SourceGraphic" in2="effect1_dropShadow_632_16020" result="shape"/>
</filter>
<filter id="filter7_d_632_16020" x="864" y="27" width="224" height="231.111" filterUnits="userSpaceOnUse" color-interpolation-filters="sRGB">
<feFlood flood-opacity="0" result="BackgroundImageFix"/>
<feColorMatrix in="SourceAlpha" type="matrix" values="0 0 0 0 0 0 0 0 0 0 0 0 0 0 0 0 0 0 127 0" result="hardAlpha"/>
<feOffset/>
<feGaussianBlur stdDeviation="40"/>
<feComposite in2="hardAlpha" operator="out"/>
<feColorMatrix type="matrix" values="0 0 0 0 0.498039 0 0 0 0 0.811765 0 0 0 0 1 0 0 0 1 0"/>
<feBlend mode="normal" in2="BackgroundImageFix" result="effect1_dropShadow_632_16020"/>
<feBlend mode="normal" in="SourceGraphic" in2="effect1_dropShadow_632_16020" result="shape"/>
</filter>
<linearGradient id="paint0_linear_632_16020" x1="82" y1="317.5" x2="1667" y2="317.5" gradientUnits="userSpaceOnUse">
<stop stop-color="#7FCFFF"/>
<stop offset="1" stop-color="#7FCFFF" stop-opacity="0"/>
</linearGradient>
<linearGradient id="paint1_linear_632_16020" x1="978.541" y1="-370.959" x2="978.541" y2="1005.96" gradientUnits="userSpaceOnUse">
<stop stop-color="#7FCFFF"/>
<stop offset="1" stop-color="#7FCFFF" stop-opacity="0"/>
</linearGradient>
<linearGradient id="paint2_linear_632_16020" x1="486.215" y1="317.5" x2="1469.87" y2="317.5" gradientUnits="userSpaceOnUse">
<stop stop-color="#7FCFFF"/>
<stop offset="1" stop-color="#7FCFFF" stop-opacity="0"/>
</linearGradient>
<linearGradient id="paint3_linear_632_16020" x1="977.545" y1="26.2861" x2="977.545" y2="610.705" gradientUnits="userSpaceOnUse">
<stop stop-color="#7FCFFF"/>
<stop offset="1" stop-color="#7FCFFF" stop-opacity="0"/>
</linearGradient>
<radialGradient id="paint4_radial_632_16020" cx="0" cy="0" r="1" gradientUnits="userSpaceOnUse" gradientTransform="translate(976.406 230) rotate(90) scale(219 350.92)">
<stop stop-color="#7FCFFF"/>
<stop offset="1" stop-color="#7FCFFF" stop-opacity="0"/>
</radialGradient>
<clipPath id="clip0_632_16020">
<rect width="1280" height="649" fill="white"/>
</clipPath>
</defs>
</svg>
