<svg width="1508" height="960" viewBox="0 0 1508 960" fill="none" xmlns="http://www.w3.org/2000/svg">
<g clip-path="url(#clip0_1756_33279)">
<g filter="url(#filter0_d_1756_33279)">
<ellipse cx="742.5" cy="319" rx="54.5" ry="55" fill="#7FCFFF" fill-opacity="0.3" shape-rendering="crispEdges"/>
</g>
<g filter="url(#filter1_d_1756_33279)">
<ellipse cx="362.5" cy="596" rx="54.5" ry="55" fill="#7FCFFF" fill-opacity="0.3" shape-rendering="crispEdges"/>
</g>
<mask id="mask0_1756_33279" style="mask-type:alpha" maskUnits="userSpaceOnUse" x="0" y="0" width="1508" height="960">
<rect width="1508" height="960" fill="url(#paint0_radial_1756_33279)"/>
</mask>
<g mask="url(#mask0_1756_33279)">
<path d="M97.2981 178.901V162.203C97.2981 158.043 94.1784 154.602 90.022 154.411C62.5487 153.155 -36.4254 152.013 -97.7479 195.794C-99.7874 197.251 -100.95 199.621 -100.95 202.127V231.831" stroke="#444746" stroke-width="8" stroke-miterlimit="10"/>
<path d="M628.526 178.901V162.203C628.526 158.043 631.646 154.602 635.802 154.411C663.276 153.155 762.25 152.013 823.572 195.794C825.612 197.251 826.775 199.621 826.775 202.127V231.831" stroke="#444746" stroke-width="8" stroke-miterlimit="10"/>
<path d="M1029.08 856.369C1003.87 664.883 950.544 457.039 903.036 332.91C856.498 207.819 733.365 182.801 617.988 182.801H107.034C-8.34253 182.801 -131.476 207.819 -178.014 332.91C-224.553 458.001 -277.878 664.883 -304.056 856.369C-318.599 951.63 -248.792 1009.36 -186.74 1016.1C-124.689 1022.84 -50.0332 999.742 -13.1902 905.443C23.6527 812.106 39.1655 732.24 116.73 732.24C182.659 732.24 541.393 732.24 607.323 732.24C684.887 732.24 700.4 812.106 737.243 905.443C774.086 998.78 848.741 1022.84 910.793 1016.1C972.844 1009.36 1043.62 951.63 1029.08 856.369Z" fill="white" fill-opacity="0.05" stroke="#8E918F" stroke-width="10" stroke-miterlimit="10"/>
<path d="M72.3349 369.966H32.7364C30.5273 369.966 28.7364 368.175 28.7364 365.966V326.368C28.7364 307.96 13.2347 292.459 -5.17352 292.459C-23.5818 292.459 -39.0834 307.96 -39.0834 326.368V365.966C-39.0834 368.175 -40.8743 369.966 -43.0834 369.966H-82.6819C-101.09 369.966 -116.592 385.467 -116.592 403.875C-116.592 422.283 -101.09 437.785 -82.6819 437.785H-43.0834C-40.8743 437.785 -39.0834 439.576 -39.0834 441.785V481.383C-39.0834 499.791 -23.5818 515.292 -5.17352 515.292C13.2347 515.292 28.7364 499.791 28.7364 481.383V441.785C28.7364 439.576 30.5273 437.785 32.7364 437.785H72.3349C90.7431 437.785 106.245 422.283 106.245 403.875C106.245 385.467 91.7119 369.966 72.3349 369.966Z" stroke="#8E918F" stroke-width="6" stroke-miterlimit="10"/>
<path d="M164.98 675.182C208.738 675.182 244.211 639.71 244.211 595.953C244.211 552.195 208.738 516.723 164.98 516.723C121.223 516.723 85.75 552.195 85.75 595.953C85.75 639.71 121.223 675.182 164.98 675.182Z" stroke="#444746" stroke-width="2" stroke-miterlimit="10"/>
<path d="M164.42 655.375C197.238 655.375 223.843 628.771 223.843 595.953C223.843 563.135 197.238 536.53 164.42 536.53C131.601 536.53 104.997 563.135 104.997 595.953C104.997 628.771 131.601 655.375 164.42 655.375Z" stroke="#8E918F" stroke-width="6" stroke-miterlimit="10"/>
<path d="M362.5 640.519C387.114 640.519 407.067 620.566 407.067 595.953C407.067 571.339 387.114 551.386 362.5 551.386C337.887 551.386 317.934 571.339 317.934 595.953C317.934 620.566 337.887 640.519 362.5 640.519Z" fill="#7FCFFF" stroke="#C2E7FF" stroke-width="4" stroke-miterlimit="10"/>
<path d="M351.11 591.967C365.045 585.683 377.224 589.471 383.729 592.646C384.339 592.944 385.07 592.636 385.285 591.993L387.187 586.284C387.41 585.617 387.103 584.89 386.47 584.58C378.441 580.658 359.378 574.403 338.331 589.214C337.786 589.599 337.592 590.317 337.863 590.927L342.305 600.924C342.604 601.598 343.374 601.925 344.067 601.671C349.151 599.809 356.839 597.855 364.809 599.005C359.415 599.918 355.081 601.821 351.753 603.864C351.158 604.228 350.923 604.974 351.2 605.613C351.2 605.613 352.966 609.656 353.931 611.868C354.171 612.42 354.897 612.548 355.31 612.113C356.333 611.032 357.466 610.246 358.385 609.713C362.69 607.213 368.641 605.362 376.687 605.787C377.315 605.82 377.89 605.429 378.088 604.832L380.121 598.732C380.325 598.122 380.089 597.449 379.546 597.106C373.579 593.335 364.39 590.193 351.074 591.982L351.11 591.967Z" fill="#003355"/>
<path d="M560.574 675.18C604.332 675.18 639.804 639.708 639.804 595.952C639.804 552.195 604.332 516.723 560.574 516.723C516.817 516.723 481.345 552.195 481.345 595.952C481.345 639.708 516.817 675.18 560.574 675.18Z" stroke="#444746" stroke-width="2" stroke-miterlimit="10"/>
<path d="M561.156 655.985C593.974 655.985 620.578 629.381 620.578 596.563C620.578 563.746 593.974 537.142 561.156 537.142C528.338 537.142 501.733 563.746 501.733 596.563C501.733 629.381 528.338 655.985 561.156 655.985Z" stroke="#8E918F" stroke-width="6" stroke-miterlimit="10"/>
<path d="M229.295 332.009C242.326 332.009 253.083 320.942 253.083 307.726C253.083 294.509 242.326 283.442 229.295 283.442H193.641C180.61 283.442 169.854 294.509 169.854 307.726C169.854 320.942 180.61 332.009 193.641 332.009H229.295Z" stroke="#8E918F" stroke-width="4" stroke-miterlimit="10"/>
<path d="M201.565 307.507C201.565 310.242 199.348 312.459 196.613 312.459C193.878 312.459 191.661 310.242 191.661 307.507C191.661 304.773 193.878 302.556 196.613 302.556C199.348 302.556 201.565 304.773 201.565 307.507Z" fill="#C4C7C5"/>
<path d="M216.42 307.507C216.42 310.242 214.203 312.459 211.469 312.459C208.734 312.459 206.517 310.242 206.517 307.507C206.517 304.773 208.734 302.556 211.469 302.556C214.203 302.556 216.42 304.773 216.42 307.507Z" fill="#C4C7C5"/>
<path d="M231.276 307.507C231.276 310.242 229.059 312.459 226.324 312.459C223.589 312.459 221.372 310.242 221.372 307.507C221.372 304.773 223.589 302.556 226.324 302.556C229.059 302.556 231.276 304.773 231.276 307.507Z" fill="#C4C7C5"/>
<path d="M268.415 434.579C284.561 434.579 297.65 421.49 297.65 405.344C297.65 389.197 284.561 376.108 268.415 376.108C252.269 376.108 239.18 389.197 239.18 405.344C239.18 421.49 252.269 434.579 268.415 434.579Z" stroke="#8E918F" stroke-width="4" stroke-miterlimit="10"/>
<path d="M282.135 400.974C281.533 400.974 281.016 400.769 280.583 400.36C280.173 399.926 279.969 399.409 279.969 398.807C279.969 398.205 280.173 397.7 280.583 397.291C281.016 396.857 281.533 396.641 282.135 396.641C282.737 396.641 283.243 396.857 283.652 397.291C284.085 397.7 284.302 398.205 284.302 398.807C284.302 399.409 284.085 399.926 283.652 400.36C283.243 400.769 282.737 400.974 282.135 400.974ZM275.636 408.195C274.432 408.195 273.409 407.774 272.567 406.931C271.724 406.089 271.303 405.066 271.303 403.862C271.303 402.659 271.724 401.636 272.567 400.793C273.409 399.951 274.432 399.529 275.636 399.529C276.84 399.529 277.863 399.951 278.705 400.793C279.548 401.636 279.969 402.659 279.969 403.862C279.969 405.066 279.548 406.089 278.705 406.931C277.863 407.774 276.84 408.195 275.636 408.195ZM275.636 419.749C274.24 419.749 273.048 419.256 272.061 418.269C271.074 417.282 270.581 416.09 270.581 414.694C270.581 413.298 271.074 412.107 272.061 411.12C273.048 410.133 274.24 409.639 275.636 409.639C277.032 409.639 278.224 410.133 279.211 411.12C280.198 412.107 280.691 413.298 280.691 414.694C280.691 416.09 280.198 417.282 279.211 418.269C278.224 419.256 277.032 419.749 275.636 419.749ZM261.193 408.195C258.786 408.195 256.74 407.353 255.055 405.667C253.37 403.982 252.527 401.936 252.527 399.529C252.527 397.122 253.37 395.076 255.055 393.391C256.74 391.706 258.786 390.864 261.193 390.864C263.6 390.864 265.646 391.706 267.331 393.391C269.016 395.076 269.859 397.122 269.859 399.529C269.859 401.936 269.016 403.982 267.331 405.667C265.646 407.353 263.6 408.195 261.193 408.195Z" fill="#C4C7C5"/>
<path d="M455.802 434.578C471.948 434.578 485.037 421.489 485.037 405.343C485.037 389.197 471.948 376.108 455.802 376.108C439.656 376.108 426.566 389.197 426.566 405.343C426.566 421.489 439.656 434.578 455.802 434.578Z" stroke="#8E918F" stroke-width="4" stroke-miterlimit="10"/>
<path d="M442.349 418.305V409.16H445.598V415.055H451.494V418.305H442.349ZM442.349 401.407V392.308H451.494V395.558H445.598V401.407H442.349ZM459.247 418.305V415.055H465.096V409.16H468.346V418.305H459.247ZM465.096 401.407V395.558H459.247V392.308H468.346V401.407H465.096Z" fill="#C4C7C5"/>
<path d="M531.203 332.009C544.234 332.009 554.991 320.942 554.991 307.726C554.991 294.509 544.234 283.442 531.203 283.442H495.55C482.519 283.442 471.762 294.509 471.762 307.726C471.762 320.942 482.519 332.009 495.55 332.009H531.203Z" stroke="#8E918F" stroke-width="4" stroke-miterlimit="10"/>
<path d="M497.747 318.03V314.873H529.315V318.03H497.747ZM497.747 309.086V305.929H529.315V309.086H497.747ZM497.747 300.142V296.985H529.315V300.142H497.747Z" fill="#C4C7C5"/>
<path d="M742.244 528.627C765.227 528.627 783.859 509.995 783.859 487.012C783.859 464.029 765.227 445.397 742.244 445.397C719.261 445.397 700.629 464.029 700.629 487.012C700.629 509.995 719.261 528.627 742.244 528.627Z" stroke="#8E918F" stroke-width="4" stroke-miterlimit="10"/>
<path d="M729.977 500.63L740.673 472.265H745.624L756.36 500.63H751.567L748.952 493.34H737.385L734.77 500.63H729.977ZM747.486 489.3L744.357 480.624L743.287 477.376H743.049L741.98 480.624L738.85 489.3H747.486Z" fill="#C4C7C5"/>
<path d="M658.374 444.352C681.357 444.352 699.988 425.72 699.988 402.737C699.988 379.754 681.357 361.122 658.374 361.122C635.39 361.122 616.759 379.754 616.759 402.737C616.759 425.72 635.39 444.352 658.374 444.352Z" stroke="#8E918F" stroke-width="4" stroke-miterlimit="10"/>
<path d="M646.628 388.084H651.976L658.275 398.265H658.512L664.851 388.084H670.159L661.325 401.711L670.793 416.448H665.485L658.512 405.396H658.275L651.303 416.448H645.994L655.462 401.711L646.628 388.084Z" fill="#C4C7C5"/>
<path d="M742.244 360.264C765.227 360.264 783.859 341.632 783.859 318.649C783.859 295.666 765.227 277.034 742.244 277.034C719.261 277.034 700.629 295.666 700.629 318.649C700.629 341.632 719.261 360.264 742.244 360.264Z" fill="#7FCFFF" stroke="#C2E7FF" stroke-width="4" stroke-miterlimit="10"/>
<path d="M740.491 332.158V319.006L730.904 303.794H736.054L742.511 314.49H742.749L749.048 303.794H754.237L744.809 319.006V332.158H740.491Z" fill="#003355"/>
<path d="M826.737 444.352C849.72 444.352 868.352 425.72 868.352 402.737C868.352 379.754 849.72 361.122 826.737 361.122C803.754 361.122 785.122 379.754 785.122 402.737C785.122 425.72 803.754 444.352 826.737 444.352Z" stroke="#8E918F" stroke-width="4" stroke-miterlimit="10"/>
<path d="M818.166 416.448V388.084H828.783C830.341 388.084 831.754 388.414 833.022 389.074C834.289 389.735 835.293 390.633 836.032 391.768C836.798 392.904 837.181 394.185 837.181 395.611C837.181 397.063 836.825 398.305 836.112 399.335C835.398 400.365 834.474 401.144 833.338 401.672V401.87C834.765 402.345 835.927 403.164 836.825 404.326C837.723 405.488 838.172 406.875 838.172 408.486C838.172 410.07 837.762 411.457 836.943 412.645C836.151 413.834 835.068 414.771 833.695 415.458C832.348 416.118 830.869 416.448 829.258 416.448H818.166ZM822.524 403.89V412.407H829.258C830.209 412.407 831.028 412.209 831.714 411.813C832.401 411.417 832.916 410.889 833.259 410.229C833.629 409.568 833.814 408.882 833.814 408.169C833.814 407.403 833.629 406.703 833.259 406.069C832.89 405.409 832.348 404.881 831.635 404.485C830.948 404.088 830.103 403.89 829.1 403.89H822.524ZM822.524 400.008H828.585C829.509 400.008 830.288 399.823 830.922 399.453C831.582 399.057 832.084 398.555 832.427 397.948C832.771 397.314 832.942 396.667 832.942 396.007C832.942 395.347 832.771 394.726 832.427 394.145C832.11 393.538 831.635 393.049 831.001 392.679C830.367 392.283 829.615 392.085 828.743 392.085H822.524V400.008Z" fill="#C4C7C5"/>
</g>
<path d="M1244 336C1283.76 336 1316 303.765 1316 264C1316 224.235 1283.76 192 1244 192C1204.24 192 1172 224.235 1172 264C1172 303.765 1204.24 336 1244 336Z" fill="#E8EAED" fill-opacity="0.1" stroke="white" stroke-width="4" stroke-miterlimit="10"/>
<path d="M1225.6 257.561C1248.11 247.408 1267.79 253.529 1278.3 258.657C1279.28 259.138 1280.46 258.642 1280.81 257.602L1283.88 248.38C1284.24 247.302 1283.75 246.127 1282.72 245.627C1269.75 239.291 1238.96 229.185 1204.95 253.114C1204.07 253.734 1203.76 254.895 1204.2 255.88L1211.37 272.031C1211.86 273.12 1213.1 273.648 1214.22 273.239C1222.43 270.229 1234.85 267.073 1247.73 268.931C1239.02 270.407 1232.01 273.48 1226.64 276.78C1225.68 277.369 1225.3 278.575 1225.74 279.607C1225.74 279.607 1228.6 286.139 1230.16 289.713C1230.54 290.603 1231.72 290.811 1232.38 290.107C1234.04 288.362 1235.87 287.092 1237.35 286.23C1244.31 282.192 1253.92 279.201 1266.92 279.888C1267.93 279.941 1268.86 279.309 1269.18 278.345L1272.47 268.49C1272.8 267.505 1272.41 266.418 1271.54 265.863C1261.9 259.77 1247.05 254.695 1225.54 257.586L1225.6 257.561Z" fill="white"/>
<path d="M1244 342C1287.08 342 1322 307.078 1322 264C1322 220.922 1287.08 186 1244 186C1200.92 186 1166 220.922 1166 264C1166 307.078 1200.92 342 1244 342Z" stroke="#FF773D" stroke-width="12" stroke-miterlimit="10"/>
<g filter="url(#filter2_f_1756_33279)">
<path d="M1244 342C1287.08 342 1322 307.078 1322 264C1322 220.922 1287.08 186 1244 186C1200.92 186 1166 220.922 1166 264C1166 307.078 1200.92 342 1244 342Z" stroke="#FF773D" stroke-width="12" stroke-miterlimit="10"/>
</g>
<g filter="url(#filter3_f_1756_33279)">
<path d="M1244 342C1287.08 342 1322 307.078 1322 264C1322 220.922 1287.08 186 1244 186C1200.92 186 1166 220.922 1166 264C1166 307.078 1200.92 342 1244 342Z" stroke="#FF773D" stroke-width="12" stroke-miterlimit="10"/>
</g>
<g filter="url(#filter4_f_1756_33279)">
<path d="M1244 342C1287.08 342 1322 307.078 1322 264C1322 220.922 1287.08 186 1244 186C1200.92 186 1166 220.922 1166 264C1166 307.078 1200.92 342 1244 342Z" stroke="#FF773D" stroke-width="12" stroke-miterlimit="10"/>
</g>
<g opacity="0.2" filter="url(#filter5_f_1756_33279)">
<path d="M1244 388C1312.48 388 1368 332.483 1368 264C1368 195.517 1312.48 140 1244 140C1175.52 140 1120 195.517 1120 264C1120 332.483 1175.52 388 1244 388Z" fill="url(#paint1_radial_1756_33279)"/>
</g>
<g opacity="0.1" filter="url(#filter6_f_1756_33279)">
<path d="M1388 264C1388 343.529 1323.53 408 1244 408C1164.47 408 1100 343.529 1100 264C1100 184.471 1164.47 120 1244 120C1323.53 120 1388 184.471 1388 264Z" stroke="url(#paint2_radial_1756_33279)" stroke-width="48" stroke-miterlimit="10"/>
</g>
<path d="M369 682.496C369 680.287 367.209 678.496 365 678.496C362.791 678.496 361 680.287 361 682.496H369ZM1248.83 456.172C1247.27 454.609 1244.73 454.609 1243.17 456.172L1217.72 481.627C1216.15 483.19 1216.15 485.722 1217.72 487.284C1219.28 488.846 1221.81 488.846 1223.37 487.284L1246 464.657L1268.63 487.284C1270.19 488.846 1272.72 488.846 1274.28 487.284C1275.85 485.722 1275.85 483.19 1274.28 481.627L1248.83 456.172ZM361 682.496V733H369V682.496H361ZM465 837H1146V829H465V837ZM1250 733V459H1242V733H1250ZM1146 837C1203.44 837 1250 790.438 1250 733H1242C1242 786.019 1199.02 829 1146 829V837ZM361 733C361 790.438 407.562 837 465 837V829C411.981 829 369 786.019 369 733H361Z" fill="#7FCFFF"/>
</g>
<defs>
<filter id="filter0_d_1756_33279" x="628" y="204" width="229" height="230" filterUnits="userSpaceOnUse" color-interpolation-filters="sRGB">
<feFlood flood-opacity="0" result="BackgroundImageFix"/>
<feColorMatrix in="SourceAlpha" type="matrix" values="0 0 0 0 0 0 0 0 0 0 0 0 0 0 0 0 0 0 127 0" result="hardAlpha"/>
<feOffset/>
<feGaussianBlur stdDeviation="30"/>
<feComposite in2="hardAlpha" operator="out"/>
<feColorMatrix type="matrix" values="0 0 0 0 0.498039 0 0 0 0 0.811765 0 0 0 0 1 0 0 0 0.5 0"/>
<feBlend mode="normal" in2="BackgroundImageFix" result="effect1_dropShadow_1756_33279"/>
<feBlend mode="normal" in="SourceGraphic" in2="effect1_dropShadow_1756_33279" result="shape"/>
</filter>
<filter id="filter1_d_1756_33279" x="248" y="481" width="229" height="230" filterUnits="userSpaceOnUse" color-interpolation-filters="sRGB">
<feFlood flood-opacity="0" result="BackgroundImageFix"/>
<feColorMatrix in="SourceAlpha" type="matrix" values="0 0 0 0 0 0 0 0 0 0 0 0 0 0 0 0 0 0 127 0" result="hardAlpha"/>
<feOffset/>
<feGaussianBlur stdDeviation="30"/>
<feComposite in2="hardAlpha" operator="out"/>
<feColorMatrix type="matrix" values="0 0 0 0 0.498039 0 0 0 0 0.811765 0 0 0 0 1 0 0 0 0.5 0"/>
<feBlend mode="normal" in2="BackgroundImageFix" result="effect1_dropShadow_1756_33279"/>
<feBlend mode="normal" in="SourceGraphic" in2="effect1_dropShadow_1756_33279" result="shape"/>
</filter>
<filter id="filter2_f_1756_33279" x="1150" y="170" width="188" height="188" filterUnits="userSpaceOnUse" color-interpolation-filters="sRGB">
<feFlood flood-opacity="0" result="BackgroundImageFix"/>
<feBlend mode="normal" in="SourceGraphic" in2="BackgroundImageFix" result="shape"/>
<feGaussianBlur stdDeviation="5" result="effect1_foregroundBlur_1756_33279"/>
</filter>
<filter id="filter3_f_1756_33279" x="1125" y="145" width="238" height="238" filterUnits="userSpaceOnUse" color-interpolation-filters="sRGB">
<feFlood flood-opacity="0" result="BackgroundImageFix"/>
<feBlend mode="normal" in="SourceGraphic" in2="BackgroundImageFix" result="shape"/>
<feGaussianBlur stdDeviation="17.5" result="effect1_foregroundBlur_1756_33279"/>
</filter>
<filter id="filter4_f_1756_33279" x="1125" y="145" width="238" height="238" filterUnits="userSpaceOnUse" color-interpolation-filters="sRGB">
<feFlood flood-opacity="0" result="BackgroundImageFix"/>
<feBlend mode="normal" in="SourceGraphic" in2="BackgroundImageFix" result="shape"/>
<feGaussianBlur stdDeviation="17.5" result="effect1_foregroundBlur_1756_33279"/>
</filter>
<filter id="filter5_f_1756_33279" x="1118" y="138" width="252" height="252" filterUnits="userSpaceOnUse" color-interpolation-filters="sRGB">
<feFlood flood-opacity="0" result="BackgroundImageFix"/>
<feBlend mode="normal" in="SourceGraphic" in2="BackgroundImageFix" result="shape"/>
<feGaussianBlur stdDeviation="1" result="effect1_foregroundBlur_1756_33279"/>
</filter>
<filter id="filter6_f_1756_33279" x="1072" y="92" width="344" height="344" filterUnits="userSpaceOnUse" color-interpolation-filters="sRGB">
<feFlood flood-opacity="0" result="BackgroundImageFix"/>
<feBlend mode="normal" in="SourceGraphic" in2="BackgroundImageFix" result="shape"/>
<feGaussianBlur stdDeviation="2" result="effect1_foregroundBlur_1756_33279"/>
</filter>
<radialGradient id="paint0_radial_1756_33279" cx="0" cy="0" r="1" gradientUnits="userSpaceOnUse" gradientTransform="translate(588 433.5) rotate(92.549) scale(607.101 628.255)">
<stop offset="0.551631" stop-color="white"/>
<stop offset="1" stop-color="white" stop-opacity="0"/>
</radialGradient>
<radialGradient id="paint1_radial_1756_33279" cx="0" cy="0" r="1" gradientUnits="userSpaceOnUse" gradientTransform="translate(1244 264) rotate(90) scale(124)">
<stop offset="0.848958" stop-color="#FF773D" stop-opacity="0"/>
<stop offset="1" stop-color="#FF773D"/>
</radialGradient>
<radialGradient id="paint2_radial_1756_33279" cx="0" cy="0" r="1" gradientUnits="userSpaceOnUse" gradientTransform="translate(1244 264) rotate(90) scale(168)">
<stop offset="0.807292" stop-color="#FF773D" stop-opacity="0"/>
<stop offset="1" stop-color="#FF773D"/>
</radialGradient>
<clipPath id="clip0_1756_33279">
<rect width="1508" height="960" fill="white"/>
</clipPath>
</defs>
</svg>
