<svg width="1280" height="960" viewBox="0 0 1280 960" fill="none" xmlns="http://www.w3.org/2000/svg">
<g clip-path="url(#clip0_693_16793)">
<g filter="url(#filter0_d_693_16793)">
<ellipse cx="488.5" cy="643" rx="54.5" ry="55" fill="#7FCFFF" fill-opacity="0.3" shape-rendering="crispEdges"/>
</g>
<mask id="mask0_693_16793" style="mask-type:alpha" maskUnits="userSpaceOnUse" x="0" y="0" width="1280" height="960">
<rect width="1280" height="960" fill="url(#paint0_linear_693_16793)"/>
</mask>
<g mask="url(#mask0_693_16793)">
<path d="M374.298 514.685V497.987C374.298 493.826 371.178 490.385 367.022 490.195C339.549 488.939 240.575 487.797 179.252 531.578C177.213 533.035 176.05 535.405 176.05 537.911V567.615" stroke="#444746" stroke-width="8" stroke-miterlimit="10"/>
<path d="M905.526 514.685V497.987C905.526 493.826 908.646 490.385 912.802 490.195C940.276 488.939 1039.25 487.797 1100.57 531.578C1102.61 533.035 1103.77 535.405 1103.77 537.911V567.615" stroke="#444746" stroke-width="8" stroke-miterlimit="10"/>
<path d="M1306.08 1192.15C1280.87 1000.67 1227.54 792.823 1180.04 668.694C1133.5 543.603 1010.36 518.585 894.988 518.585H384.034C268.657 518.585 145.524 543.603 98.986 668.694C52.4475 793.785 -0.877881 1000.67 -27.0558 1192.15C-41.5991 1287.41 28.2084 1345.15 90.2598 1351.88C152.311 1358.62 226.967 1335.53 263.81 1241.23C300.653 1147.89 316.166 1068.02 393.73 1068.02C459.659 1068.02 818.393 1068.02 884.323 1068.02C961.887 1068.02 977.4 1147.89 1014.24 1241.23C1051.09 1334.56 1125.74 1358.62 1187.79 1351.88C1249.84 1345.15 1320.62 1287.41 1306.08 1192.15Z" fill="white" fill-opacity="0.05" stroke="#8E918F" stroke-width="10" stroke-miterlimit="10"/>
<path d="M349.335 705.75H309.736C307.527 705.75 305.736 703.959 305.736 701.75V662.152C305.736 643.744 290.235 628.243 271.826 628.243C253.418 628.243 237.917 643.744 237.917 662.152V701.75C237.917 703.959 236.126 705.75 233.917 705.75H194.318C175.91 705.75 160.408 721.251 160.408 739.659C160.408 758.067 175.91 773.569 194.318 773.569H233.917C236.126 773.569 237.917 775.36 237.917 777.569V817.167C237.917 835.575 253.418 851.076 271.826 851.076C290.235 851.076 305.736 835.575 305.736 817.167V777.569C305.736 775.36 307.527 773.569 309.736 773.569H349.335C367.743 773.569 383.245 758.067 383.245 739.659C383.245 721.251 368.712 705.75 349.335 705.75Z" stroke="#8E918F" stroke-width="6" stroke-miterlimit="10"/>
<path d="M441.98 1010.97C485.738 1010.97 521.211 975.494 521.211 931.737C521.211 887.979 485.738 852.507 441.98 852.507C398.223 852.507 362.75 887.979 362.75 931.737C362.75 975.494 398.223 1010.97 441.98 1010.97Z" stroke="#444746" stroke-width="2" stroke-miterlimit="10"/>
<path d="M441.42 991.159C474.238 991.159 500.843 964.555 500.843 931.737C500.843 898.919 474.238 872.314 441.42 872.314C408.601 872.314 381.997 898.919 381.997 931.737C381.997 964.555 408.601 991.159 441.42 991.159Z" stroke="#8E918F" stroke-width="6" stroke-miterlimit="10"/>
<path d="M639.5 976.303C664.114 976.303 684.067 956.35 684.067 931.737C684.067 907.123 664.114 887.17 639.5 887.17C614.887 887.17 594.934 907.123 594.934 931.737C594.934 956.35 614.887 976.303 639.5 976.303Z" stroke="#E3E3E3" stroke-width="4" stroke-miterlimit="10"/>
<path d="M628.11 927.751C642.045 921.467 654.224 925.255 660.729 928.43C661.339 928.727 662.07 928.42 662.285 927.777L664.187 922.068C664.41 921.401 664.103 920.673 663.47 920.364C655.441 916.442 636.378 910.187 615.331 924.998C614.786 925.383 614.592 926.101 614.863 926.71L619.305 936.708C619.604 937.382 620.374 937.709 621.067 937.455C626.151 935.592 633.839 933.639 641.809 934.789C636.415 935.702 632.081 937.605 628.753 939.648C628.158 940.012 627.923 940.758 628.2 941.397C628.2 941.397 629.966 945.44 630.931 947.652C631.171 948.204 631.897 948.332 632.31 947.897C633.333 946.816 634.466 946.03 635.385 945.496C639.69 942.997 645.641 941.146 653.687 941.571C654.315 941.604 654.89 941.213 655.088 940.616L657.121 934.516C657.325 933.906 657.089 933.233 656.546 932.89C650.579 929.119 641.39 925.977 628.074 927.766L628.11 927.751Z" fill="#C4C7C5"/>
<path d="M837.574 1010.96C881.332 1010.96 916.804 975.492 916.804 931.736C916.804 887.979 881.332 852.507 837.574 852.507C793.817 852.507 758.345 887.979 758.345 931.736C758.345 975.492 793.817 1010.96 837.574 1010.96Z" stroke="#444746" stroke-width="2" stroke-miterlimit="10"/>
<path d="M838.156 991.769C870.974 991.769 897.578 965.165 897.578 932.347C897.578 899.53 870.974 872.926 838.156 872.926C805.338 872.926 778.733 899.53 778.733 932.347C778.733 965.165 805.338 991.769 838.156 991.769Z" stroke="#8E918F" stroke-width="6" stroke-miterlimit="10"/>
<path d="M506.295 667.793C519.326 667.793 530.083 656.726 530.083 643.509C530.083 630.293 519.326 619.226 506.295 619.226H470.641C457.61 619.226 446.854 630.293 446.854 643.509C446.854 656.726 457.61 667.793 470.641 667.793H506.295Z" fill="#7FCFFF" stroke="#C2E7FF" stroke-width="4" stroke-miterlimit="10"/>
<path d="M478.565 643.291C478.565 646.026 476.348 648.243 473.613 648.243C470.878 648.243 468.661 646.026 468.661 643.291C468.661 640.556 470.878 638.339 473.613 638.339C476.348 638.339 478.565 640.556 478.565 643.291Z" fill="#003355"/>
<path d="M493.42 643.291C493.42 646.026 491.203 648.243 488.469 648.243C485.734 648.243 483.517 646.026 483.517 643.291C483.517 640.556 485.734 638.339 488.469 638.339C491.203 638.339 493.42 640.556 493.42 643.291Z" fill="#003355"/>
<path d="M508.276 643.291C508.276 646.026 506.059 648.243 503.324 648.243C500.589 648.243 498.372 646.026 498.372 643.291C498.372 640.556 500.589 638.339 503.324 638.339C506.059 638.339 508.276 640.556 508.276 643.291Z" fill="#003355"/>
<path d="M545.415 770.363C561.561 770.363 574.65 757.274 574.65 741.128C574.65 724.981 561.561 711.892 545.415 711.892C529.269 711.892 516.18 724.981 516.18 741.128C516.18 757.274 529.269 770.363 545.415 770.363Z" stroke="#8E918F" stroke-width="4" stroke-miterlimit="10"/>
<path d="M559.135 736.757C558.533 736.757 558.016 736.553 557.583 736.144C557.173 735.71 556.969 735.193 556.969 734.591C556.969 733.989 557.173 733.484 557.583 733.075C558.016 732.641 558.533 732.425 559.135 732.425C559.737 732.425 560.243 732.641 560.652 733.075C561.085 733.484 561.302 733.989 561.302 734.591C561.302 735.193 561.085 735.71 560.652 736.144C560.243 736.553 559.737 736.757 559.135 736.757ZM552.636 743.979C551.432 743.979 550.409 743.558 549.567 742.715C548.724 741.873 548.303 740.85 548.303 739.646C548.303 738.442 548.724 737.419 549.567 736.577C550.409 735.734 551.432 735.313 552.636 735.313C553.84 735.313 554.863 735.734 555.705 736.577C556.548 737.419 556.969 738.442 556.969 739.646C556.969 740.85 556.548 741.873 555.705 742.715C554.863 743.558 553.84 743.979 552.636 743.979ZM552.636 755.533C551.24 755.533 550.048 755.04 549.061 754.053C548.074 753.066 547.581 751.874 547.581 750.478C547.581 749.082 548.074 747.891 549.061 746.904C550.048 745.917 551.24 745.423 552.636 745.423C554.032 745.423 555.224 745.917 556.211 746.904C557.198 747.891 557.691 749.082 557.691 750.478C557.691 751.874 557.198 753.066 556.211 754.053C555.224 755.04 554.032 755.533 552.636 755.533ZM538.193 743.979C535.786 743.979 533.74 743.136 532.055 741.451C530.37 739.766 529.527 737.72 529.527 735.313C529.527 732.906 530.37 730.86 532.055 729.175C533.74 727.49 535.786 726.647 538.193 726.647C540.6 726.647 542.646 727.49 544.331 729.175C546.016 730.86 546.859 732.906 546.859 735.313C546.859 737.72 546.016 739.766 544.331 741.451C542.646 743.136 540.6 743.979 538.193 743.979Z" fill="#C4C7C5"/>
<path d="M732.802 770.362C748.948 770.362 762.037 757.273 762.037 741.127C762.037 724.981 748.948 711.892 732.802 711.892C716.656 711.892 703.566 724.981 703.566 741.127C703.566 757.273 716.656 770.362 732.802 770.362Z" stroke="#8E918F" stroke-width="4" stroke-miterlimit="10"/>
<path d="M719.349 754.089V744.944H722.598V750.839H728.494V754.089H719.349ZM719.349 737.191V728.092H728.494V731.341H722.598V737.191H719.349ZM736.247 754.089V750.839H742.096V744.944H745.346V754.089H736.247ZM742.096 737.191V731.341H736.247V728.092H745.346V737.191H742.096Z" fill="#C4C7C5"/>
<path d="M808.203 667.793C821.234 667.793 831.991 656.726 831.991 643.509C831.991 630.293 821.234 619.226 808.203 619.226H772.55C759.519 619.226 748.762 630.293 748.762 643.509C748.762 656.726 759.519 667.793 772.55 667.793H808.203Z" stroke="#8E918F" stroke-width="4" stroke-miterlimit="10"/>
<path d="M774.747 653.814V650.657H806.315V653.814H774.747ZM774.747 644.87V641.713H806.315V644.87H774.747ZM774.747 635.925V632.769H806.315V635.925H774.747Z" fill="#C4C7C5"/>
<path d="M1019.24 864.411C1042.23 864.411 1060.86 845.779 1060.86 822.796C1060.86 799.813 1042.23 781.181 1019.24 781.181C996.261 781.181 977.629 799.813 977.629 822.796C977.629 845.779 996.261 864.411 1019.24 864.411Z" stroke="#8E918F" stroke-width="4" stroke-miterlimit="10"/>
<path d="M1006.98 836.414L1017.67 808.049H1022.62L1033.36 836.414H1028.57L1025.95 829.124H1014.38L1011.77 836.414H1006.98ZM1024.49 825.084L1021.36 816.408L1020.29 813.16H1020.05L1018.98 816.408L1015.85 825.084H1024.49Z" fill="#C4C7C5"/>
<path d="M935.374 780.136C958.357 780.136 976.988 761.504 976.988 738.521C976.988 715.538 958.357 696.906 935.374 696.906C912.39 696.906 893.759 715.538 893.759 738.521C893.759 761.504 912.39 780.136 935.374 780.136Z" stroke="#8E918F" stroke-width="4" stroke-miterlimit="10"/>
<path d="M923.628 723.868H928.976L935.275 734.049H935.512L941.851 723.868H947.159L938.325 737.495L947.793 752.232H942.485L935.512 741.18H935.275L928.303 752.232H922.994L932.462 737.495L923.628 723.868Z" fill="#C4C7C5"/>
<path d="M1019.24 696.048C1042.23 696.048 1060.86 677.416 1060.86 654.433C1060.86 631.45 1042.23 612.818 1019.24 612.818C996.261 612.818 977.629 631.45 977.629 654.433C977.629 677.416 996.261 696.048 1019.24 696.048Z" stroke="#8E918F" stroke-width="4" stroke-miterlimit="10"/>
<path d="M1017.49 667.942V654.79L1007.9 639.578H1013.05L1019.51 650.274H1019.75L1026.05 639.578H1031.24L1021.81 654.79V667.942H1017.49Z" fill="#C4C7C5"/>
<path d="M1103.74 780.136C1126.72 780.136 1145.35 761.504 1145.35 738.521C1145.35 715.538 1126.72 696.906 1103.74 696.906C1080.75 696.906 1062.12 715.538 1062.12 738.521C1062.12 761.504 1080.75 780.136 1103.74 780.136Z" stroke="#8E918F" stroke-width="4" stroke-miterlimit="10"/>
<path d="M1095.17 752.232V723.868H1105.78C1107.34 723.868 1108.75 724.198 1110.02 724.858C1111.29 725.519 1112.29 726.416 1113.03 727.552C1113.8 728.688 1114.18 729.969 1114.18 731.395C1114.18 732.847 1113.82 734.089 1113.11 735.119C1112.4 736.149 1111.47 736.928 1110.34 737.456V737.654C1111.76 738.129 1112.93 738.948 1113.82 740.11C1114.72 741.272 1115.17 742.659 1115.17 744.27C1115.17 745.854 1114.76 747.241 1113.94 748.429C1113.15 749.618 1112.07 750.555 1110.7 751.242C1109.35 751.902 1107.87 752.232 1106.26 752.232H1095.17ZM1099.52 739.674V748.191H1106.26C1107.21 748.191 1108.03 747.993 1108.71 747.597C1109.4 747.201 1109.92 746.673 1110.26 746.013C1110.63 745.352 1110.81 744.666 1110.81 743.953C1110.81 743.187 1110.63 742.487 1110.26 741.853C1109.89 741.193 1109.35 740.665 1108.64 740.268C1107.95 739.872 1107.1 739.674 1106.1 739.674H1099.52ZM1099.52 735.792H1105.58C1106.51 735.792 1107.29 735.607 1107.92 735.237C1108.58 734.841 1109.08 734.339 1109.43 733.732C1109.77 733.098 1109.94 732.451 1109.94 731.791C1109.94 731.131 1109.77 730.51 1109.43 729.929C1109.11 729.322 1108.64 728.833 1108 728.463C1107.37 728.067 1106.61 727.869 1105.74 727.869H1099.52V735.792Z" fill="#C4C7C5"/>
<g filter="url(#filter1_d_693_16793)">
<rect x="609.789" y="275.864" width="59.4222" height="47.5378" fill="#8E918F"/>
<rect x="594.934" y="133.251" width="89.1333" height="142.613" fill="#E3E3E3"/>
<rect x="621.674" y="85.7129" width="35.6533" height="47.5378" fill="#E3E3E3"/>
<rect x="627.616" y="-211.398" width="23.7689" height="297.111" fill="#C4C7C5"/>
</g>
<g filter="url(#filter2_d_693_16793)">
<path d="M645.5 370.94C645.5 367.626 642.814 364.94 639.5 364.94C636.186 364.94 633.5 367.626 633.5 370.94L645.5 370.94ZM635.257 470.258C637.601 472.601 641.399 472.601 643.743 470.258L681.926 432.074C684.27 429.731 684.27 425.932 681.926 423.589C679.583 421.246 675.784 421.246 673.441 423.589L639.5 457.53L605.559 423.589C603.216 421.246 599.417 421.246 597.074 423.589C594.73 425.932 594.73 429.731 597.074 432.074L635.257 470.258ZM633.5 370.94L633.5 466.015L645.5 466.015L645.5 370.94L633.5 370.94Z" fill="#7FCFFF"/>
</g>
</g>
</g>
<defs>
<filter id="filter0_d_693_16793" x="374" y="528" width="229" height="230" filterUnits="userSpaceOnUse" color-interpolation-filters="sRGB">
<feFlood flood-opacity="0" result="BackgroundImageFix"/>
<feColorMatrix in="SourceAlpha" type="matrix" values="0 0 0 0 0 0 0 0 0 0 0 0 0 0 0 0 0 0 127 0" result="hardAlpha"/>
<feOffset/>
<feGaussianBlur stdDeviation="30"/>
<feComposite in2="hardAlpha" operator="out"/>
<feColorMatrix type="matrix" values="0 0 0 0 0.498039 0 0 0 0 0.811765 0 0 0 0 1 0 0 0 0.5 0"/>
<feBlend mode="normal" in2="BackgroundImageFix" result="effect1_dropShadow_693_16793"/>
<feBlend mode="normal" in="SourceGraphic" in2="effect1_dropShadow_693_16793" result="shape"/>
</filter>
<filter id="filter1_d_693_16793" x="534.934" y="-271.398" width="209.134" height="654.8" filterUnits="userSpaceOnUse" color-interpolation-filters="sRGB">
<feFlood flood-opacity="0" result="BackgroundImageFix"/>
<feColorMatrix in="SourceAlpha" type="matrix" values="0 0 0 0 0 0 0 0 0 0 0 0 0 0 0 0 0 0 127 0" result="hardAlpha"/>
<feOffset/>
<feGaussianBlur stdDeviation="30"/>
<feComposite in2="hardAlpha" operator="out"/>
<feColorMatrix type="matrix" values="0 0 0 0 1 0 0 0 0 1 0 0 0 0 1 0 0 0 0.3 0"/>
<feBlend mode="normal" in2="BackgroundImageFix" result="effect1_dropShadow_693_16793"/>
<feBlend mode="normal" in="SourceGraphic" in2="effect1_dropShadow_693_16793" result="shape"/>
</filter>
<filter id="filter2_d_693_16793" x="535.316" y="304.94" width="208.367" height="227.076" filterUnits="userSpaceOnUse" color-interpolation-filters="sRGB">
<feFlood flood-opacity="0" result="BackgroundImageFix"/>
<feColorMatrix in="SourceAlpha" type="matrix" values="0 0 0 0 0 0 0 0 0 0 0 0 0 0 0 0 0 0 127 0" result="hardAlpha"/>
<feOffset/>
<feGaussianBlur stdDeviation="30"/>
<feComposite in2="hardAlpha" operator="out"/>
<feColorMatrix type="matrix" values="0 0 0 0 0.498039 0 0 0 0 0.811765 0 0 0 0 1 0 0 0 0.5 0"/>
<feBlend mode="normal" in2="BackgroundImageFix" result="effect1_dropShadow_693_16793"/>
<feBlend mode="normal" in="SourceGraphic" in2="effect1_dropShadow_693_16793" result="shape"/>
</filter>
<linearGradient id="paint0_linear_693_16793" x1="640" y1="0" x2="640" y2="960" gradientUnits="userSpaceOnUse">
<stop stop-color="white" stop-opacity="0"/>
<stop offset="0.177083" stop-color="white"/>
<stop offset="0.739583" stop-color="white"/>
<stop offset="1" stop-color="white" stop-opacity="0"/>
</linearGradient>
<clipPath id="clip0_693_16793">
<rect width="1280" height="960" fill="white"/>
</clipPath>
</defs>
</svg>
