<svg width="1280" height="960" viewBox="0 0 1280 960" fill="none" xmlns="http://www.w3.org/2000/svg">
<g clip-path="url(#clip0_632_16019)">
<g filter="url(#filter0_d_632_16019)">
<circle cx="488.5" cy="341.5" r="48.5" fill="#7FCFFF" fill-opacity="0.3" shape-rendering="crispEdges"/>
</g>
<g filter="url(#filter1_d_632_16019)">
<circle cx="545.5" cy="439.5" r="40.5" fill="#7FCFFF" fill-opacity="0.3" shape-rendering="crispEdges"/>
</g>
<g filter="url(#filter2_d_632_16019)">
<ellipse cx="1019.5" cy="353" rx="54.5" ry="55" fill="#7FCFFF" fill-opacity="0.3" shape-rendering="crispEdges"/>
</g>
<g filter="url(#filter3_d_632_16019)">
<ellipse cx="1019.5" cy="521" rx="54.5" ry="55" fill="#7FCFFF" fill-opacity="0.3" shape-rendering="crispEdges"/>
</g>
<mask id="mask0_632_16019" style="mask-type:alpha" maskUnits="userSpaceOnUse" x="0" y="0" width="1280" height="960">
<rect width="1280" height="960" fill="url(#paint0_radial_632_16019)"/>
</mask>
<g mask="url(#mask0_632_16019)">
<rect x="594.934" y="73.6489" width="89.1333" height="142.613" fill="#E3E3E3"/>
<rect x="621.674" y="26.1111" width="35.6533" height="47.5378" fill="#E3E3E3"/>
<rect x="627.616" y="-271" width="23.7689" height="297.111" fill="#C4C7C5"/>
<path d="M374.298 212.685V195.987C374.298 191.826 371.178 188.385 367.022 188.195C339.549 186.939 240.575 185.797 179.252 229.578C177.213 231.035 176.05 233.405 176.05 235.911V265.615" stroke="#444746" stroke-width="8" stroke-miterlimit="10"/>
<path d="M905.526 212.685V195.987C905.526 191.826 908.646 188.385 912.802 188.195C940.276 186.939 1039.25 185.797 1100.57 229.578C1102.61 231.035 1103.77 233.405 1103.77 235.911V265.615" stroke="#444746" stroke-width="8" stroke-miterlimit="10"/>
<path d="M1306.08 890.152C1280.87 698.667 1227.54 490.823 1180.04 366.694C1133.5 241.603 1010.36 216.585 894.988 216.585H384.034C268.657 216.585 145.524 241.603 98.986 366.694C52.4475 491.785 -0.877881 698.667 -27.0558 890.152C-41.5991 985.414 28.2084 1043.15 90.2598 1049.88C152.311 1056.62 226.967 1033.53 263.81 939.227C300.653 845.889 316.166 766.024 393.73 766.024C459.659 766.024 818.393 766.024 884.323 766.024C961.887 766.024 977.4 845.889 1014.24 939.227C1051.09 1032.56 1125.74 1056.62 1187.79 1049.88C1249.84 1043.15 1320.62 985.414 1306.08 890.152Z" fill="white" fill-opacity="0.05" stroke="#8E918F" stroke-width="10" stroke-miterlimit="10"/>
<path d="M349.335 403.75H309.736C307.527 403.75 305.736 401.959 305.736 399.75V360.152C305.736 341.744 290.235 326.243 271.826 326.243C253.418 326.243 237.917 341.744 237.917 360.152V399.75C237.917 401.959 236.126 403.75 233.917 403.75H194.318C175.91 403.75 160.408 419.251 160.408 437.659C160.408 456.067 175.91 471.569 194.318 471.569H233.917C236.126 471.569 237.917 473.36 237.917 475.569V515.167C237.917 533.575 253.418 549.076 271.826 549.076C290.235 549.076 305.736 533.575 305.736 515.167V475.569C305.736 473.36 307.527 471.569 309.736 471.569H349.335C367.743 471.569 383.245 456.067 383.245 437.659C383.245 419.251 368.712 403.75 349.335 403.75Z" stroke="#8E918F" stroke-width="6" stroke-miterlimit="10"/>
<path d="M441.98 708.966C485.738 708.966 521.211 673.494 521.211 629.737C521.211 585.979 485.738 550.507 441.98 550.507C398.223 550.507 362.75 585.979 362.75 629.737C362.75 673.494 398.223 708.966 441.98 708.966Z" stroke="#444746" stroke-width="2" stroke-miterlimit="10"/>
<path d="M441.42 689.159C474.238 689.159 500.843 662.555 500.843 629.737C500.843 596.919 474.238 570.314 441.42 570.314C408.601 570.314 381.997 596.919 381.997 629.737C381.997 662.555 408.601 689.159 441.42 689.159Z" stroke="#8E918F" stroke-width="6" stroke-miterlimit="10"/>
<path d="M639.5 674.303C664.114 674.303 684.067 654.35 684.067 629.737C684.067 605.123 664.114 585.17 639.5 585.17C614.887 585.17 594.934 605.123 594.934 629.737C594.934 654.35 614.887 674.303 639.5 674.303Z" stroke="#E3E3E3" stroke-width="4" stroke-miterlimit="10"/>
<path d="M628.11 625.751C642.045 619.466 654.224 623.255 660.729 626.43C661.339 626.727 662.07 626.42 662.285 625.777L664.187 620.068C664.41 619.401 664.103 618.673 663.47 618.364C655.441 614.442 636.378 608.187 615.331 622.998C614.786 623.383 614.592 624.101 614.863 624.71L619.305 634.708C619.604 635.382 620.374 635.709 621.067 635.455C626.151 633.592 633.839 631.639 641.809 632.789C636.415 633.702 632.081 635.605 628.753 637.647C628.158 638.012 627.923 638.758 628.2 639.397C628.2 639.397 629.966 643.44 630.931 645.652C631.171 646.204 631.897 646.332 632.31 645.896C633.333 644.816 634.466 644.03 635.385 643.496C639.69 640.997 645.641 639.146 653.687 639.571C654.315 639.604 654.89 639.212 655.088 638.616L657.121 632.516C657.325 631.906 657.089 631.233 656.546 630.89C650.579 627.119 641.39 623.977 628.074 625.766L628.11 625.751Z" fill="#C4C7C5"/>
<path d="M837.574 708.964C881.332 708.964 916.804 673.492 916.804 629.736C916.804 585.979 881.332 550.507 837.574 550.507C793.817 550.507 758.345 585.979 758.345 629.736C758.345 673.492 793.817 708.964 837.574 708.964Z" stroke="#444746" stroke-width="2" stroke-miterlimit="10"/>
<path d="M838.156 689.769C870.974 689.769 897.578 663.165 897.578 630.347C897.578 597.53 870.974 570.926 838.156 570.926C805.338 570.926 778.733 597.53 778.733 630.347C778.733 663.165 805.338 689.769 838.156 689.769Z" stroke="#8E918F" stroke-width="6" stroke-miterlimit="10"/>
<path d="M506.295 365.793C519.326 365.793 530.083 354.726 530.083 341.509C530.083 328.293 519.326 317.226 506.295 317.226H470.641C457.61 317.226 446.854 328.293 446.854 341.509C446.854 354.726 457.61 365.793 470.641 365.793H506.295Z" fill="#7FCFFF" stroke="#C2E7FF" stroke-width="4" stroke-miterlimit="10"/>
<path d="M478.565 341.291C478.565 344.026 476.348 346.243 473.613 346.243C470.878 346.243 468.661 344.026 468.661 341.291C468.661 338.556 470.878 336.339 473.613 336.339C476.348 336.339 478.565 338.556 478.565 341.291Z" fill="#003355"/>
<path d="M493.42 341.291C493.42 344.026 491.203 346.243 488.469 346.243C485.734 346.243 483.517 344.026 483.517 341.291C483.517 338.556 485.734 336.339 488.469 336.339C491.203 336.339 493.42 338.556 493.42 341.291Z" fill="#003355"/>
<path d="M508.276 341.291C508.276 344.026 506.059 346.243 503.324 346.243C500.589 346.243 498.372 344.026 498.372 341.291C498.372 338.556 500.589 336.339 503.324 336.339C506.059 336.339 508.276 338.556 508.276 341.291Z" fill="#003355"/>
<path d="M545.415 468.363C561.561 468.363 574.65 455.274 574.65 439.128C574.65 422.981 561.561 409.892 545.415 409.892C529.269 409.892 516.18 422.981 516.18 439.128C516.18 455.274 529.269 468.363 545.415 468.363Z" fill="#7FCFFF" stroke="#C2E7FF" stroke-width="4" stroke-miterlimit="10"/>
<path d="M559.135 434.758C558.533 434.758 558.016 434.553 557.583 434.144C557.173 433.71 556.969 433.193 556.969 432.591C556.969 431.989 557.173 431.484 557.583 431.075C558.016 430.641 558.533 430.425 559.135 430.425C559.737 430.425 560.243 430.641 560.652 431.075C561.085 431.484 561.302 431.989 561.302 432.591C561.302 433.193 561.085 433.71 560.652 434.144C560.243 434.553 559.737 434.758 559.135 434.758ZM552.636 441.979C551.432 441.979 550.409 441.558 549.567 440.715C548.724 439.873 548.303 438.85 548.303 437.646C548.303 436.443 548.724 435.419 549.567 434.577C550.409 433.734 551.432 433.313 552.636 433.313C553.84 433.313 554.863 433.734 555.705 434.577C556.548 435.419 556.969 436.443 556.969 437.646C556.969 438.85 556.548 439.873 555.705 440.715C554.863 441.558 553.84 441.979 552.636 441.979ZM552.636 453.533C551.24 453.533 550.048 453.04 549.061 452.053C548.074 451.066 547.581 449.874 547.581 448.478C547.581 447.082 548.074 445.891 549.061 444.904C550.048 443.917 551.24 443.423 552.636 443.423C554.032 443.423 555.224 443.917 556.211 444.904C557.198 445.891 557.691 447.082 557.691 448.478C557.691 449.874 557.198 451.066 556.211 452.053C555.224 453.04 554.032 453.533 552.636 453.533ZM538.193 441.979C535.786 441.979 533.74 441.136 532.055 439.451C530.37 437.766 529.527 435.72 529.527 433.313C529.527 430.906 530.37 428.86 532.055 427.175C533.74 425.49 535.786 424.647 538.193 424.647C540.6 424.647 542.646 425.49 544.331 427.175C546.016 428.86 546.859 430.906 546.859 433.313C546.859 435.72 546.016 437.766 544.331 439.451C542.646 441.136 540.6 441.979 538.193 441.979Z" fill="#003355"/>
<path d="M732.802 468.362C748.948 468.362 762.037 455.273 762.037 439.127C762.037 422.981 748.948 409.892 732.802 409.892C716.656 409.892 703.566 422.981 703.566 439.127C703.566 455.273 716.656 468.362 732.802 468.362Z" stroke="#8E918F" stroke-width="4" stroke-miterlimit="10"/>
<path d="M719.349 452.089V442.944H722.598V448.839H728.494V452.089H719.349ZM719.349 435.191V426.092H728.494V429.341H722.598V435.191H719.349ZM736.247 452.089V448.839H742.096V442.944H745.346V452.089H736.247ZM742.096 435.191V429.341H736.247V426.092H745.346V435.191H742.096Z" fill="#C4C7C5"/>
<path d="M808.203 365.793C821.234 365.793 831.991 354.726 831.991 341.509C831.991 328.293 821.234 317.226 808.203 317.226H772.55C759.519 317.226 748.762 328.293 748.762 341.509C748.762 354.726 759.519 365.793 772.55 365.793H808.203Z" stroke="#8E918F" stroke-width="4" stroke-miterlimit="10"/>
<path d="M774.747 351.814V348.657H806.315V351.814H774.747ZM774.747 342.87V339.713H806.315V342.87H774.747ZM774.747 333.925V330.769H806.315V333.925H774.747Z" fill="#C4C7C5"/>
<path d="M1019.24 562.411C1042.23 562.411 1060.86 543.779 1060.86 520.796C1060.86 497.813 1042.23 479.181 1019.24 479.181C996.261 479.181 977.629 497.813 977.629 520.796C977.629 543.779 996.261 562.411 1019.24 562.411Z" fill="#7FCFFF" stroke="#C2E7FF" stroke-width="4" stroke-miterlimit="10"/>
<path d="M1006.98 534.414L1017.67 506.049H1022.62L1033.36 534.414H1028.57L1025.95 527.124H1014.38L1011.77 534.414H1006.98ZM1024.49 523.084L1021.36 514.408L1020.29 511.16H1020.05L1018.98 514.408L1015.85 523.084H1024.49Z" fill="#003355"/>
<path d="M935.374 478.136C958.357 478.136 976.988 459.504 976.988 436.521C976.988 413.537 958.357 394.906 935.374 394.906C912.39 394.906 893.759 413.537 893.759 436.521C893.759 459.504 912.39 478.136 935.374 478.136Z" stroke="#8E918F" stroke-width="4" stroke-miterlimit="10"/>
<path d="M923.628 421.868H928.976L935.275 432.049H935.512L941.851 421.868H947.159L938.325 435.495L947.793 450.232H942.485L935.512 439.18H935.275L928.303 450.232H922.994L932.462 435.495L923.628 421.868Z" fill="#C4C7C5"/>
<path d="M1019.24 394.048C1042.23 394.048 1060.86 375.416 1060.86 352.433C1060.86 329.45 1042.23 310.818 1019.24 310.818C996.261 310.818 977.629 329.45 977.629 352.433C977.629 375.416 996.261 394.048 1019.24 394.048Z" fill="#7FCFFF" stroke="#C2E7FF" stroke-width="4" stroke-miterlimit="10"/>
<path d="M1017.49 365.942V352.79L1007.9 337.577H1013.05L1019.51 348.273H1019.75L1026.05 337.577H1031.24L1021.81 352.79V365.942H1017.49Z" fill="#003355"/>
<path d="M1103.74 478.136C1126.72 478.136 1145.35 459.504 1145.35 436.521C1145.35 413.538 1126.72 394.906 1103.74 394.906C1080.75 394.906 1062.12 413.537 1062.12 436.521C1062.12 459.504 1080.75 478.136 1103.74 478.136Z" stroke="#8E918F" stroke-width="4" stroke-miterlimit="10"/>
<path d="M1095.17 450.232V421.868H1105.78C1107.34 421.868 1108.75 422.198 1110.02 422.858C1111.29 423.518 1112.29 424.416 1113.03 425.552C1113.8 426.688 1114.18 427.969 1114.18 429.395C1114.18 430.847 1113.82 432.088 1113.11 433.118C1112.4 434.148 1111.47 434.928 1110.34 435.456V435.654C1111.76 436.129 1112.93 436.948 1113.82 438.11C1114.72 439.272 1115.17 440.658 1115.17 442.269C1115.17 443.854 1114.76 445.241 1113.94 446.429C1113.15 447.617 1112.07 448.555 1110.7 449.242C1109.35 449.902 1107.87 450.232 1106.26 450.232H1095.17ZM1099.52 437.674V446.191H1106.26C1107.21 446.191 1108.03 445.993 1108.71 445.597C1109.4 445.201 1109.92 444.673 1110.26 444.013C1110.63 443.352 1110.81 442.666 1110.81 441.953C1110.81 441.187 1110.63 440.487 1110.26 439.853C1109.89 439.193 1109.35 438.665 1108.64 438.268C1107.95 437.872 1107.1 437.674 1106.1 437.674H1099.52ZM1099.52 433.792H1105.58C1106.51 433.792 1107.29 433.607 1107.92 433.237C1108.58 432.841 1109.08 432.339 1109.43 431.732C1109.77 431.098 1109.94 430.451 1109.94 429.791C1109.94 429.131 1109.77 428.51 1109.43 427.929C1109.11 427.321 1108.64 426.833 1108 426.463C1107.37 426.067 1106.61 425.869 1105.74 425.869H1099.52V433.792Z" fill="#C4C7C5"/>
</g>
</g>
<defs>
<filter id="filter0_d_632_16019" x="380" y="233" width="217" height="217" filterUnits="userSpaceOnUse" color-interpolation-filters="sRGB">
<feFlood flood-opacity="0" result="BackgroundImageFix"/>
<feColorMatrix in="SourceAlpha" type="matrix" values="0 0 0 0 0 0 0 0 0 0 0 0 0 0 0 0 0 0 127 0" result="hardAlpha"/>
<feOffset/>
<feGaussianBlur stdDeviation="30"/>
<feComposite in2="hardAlpha" operator="out"/>
<feColorMatrix type="matrix" values="0 0 0 0 0.498039 0 0 0 0 0.811765 0 0 0 0 1 0 0 0 0.5 0"/>
<feBlend mode="normal" in2="BackgroundImageFix" result="effect1_dropShadow_632_16019"/>
<feBlend mode="normal" in="SourceGraphic" in2="effect1_dropShadow_632_16019" result="shape"/>
</filter>
<filter id="filter1_d_632_16019" x="445" y="339" width="201" height="201" filterUnits="userSpaceOnUse" color-interpolation-filters="sRGB">
<feFlood flood-opacity="0" result="BackgroundImageFix"/>
<feColorMatrix in="SourceAlpha" type="matrix" values="0 0 0 0 0 0 0 0 0 0 0 0 0 0 0 0 0 0 127 0" result="hardAlpha"/>
<feOffset/>
<feGaussianBlur stdDeviation="30"/>
<feComposite in2="hardAlpha" operator="out"/>
<feColorMatrix type="matrix" values="0 0 0 0 0.498039 0 0 0 0 0.811765 0 0 0 0 1 0 0 0 0.5 0"/>
<feBlend mode="normal" in2="BackgroundImageFix" result="effect1_dropShadow_632_16019"/>
<feBlend mode="normal" in="SourceGraphic" in2="effect1_dropShadow_632_16019" result="shape"/>
</filter>
<filter id="filter2_d_632_16019" x="905" y="238" width="229" height="230" filterUnits="userSpaceOnUse" color-interpolation-filters="sRGB">
<feFlood flood-opacity="0" result="BackgroundImageFix"/>
<feColorMatrix in="SourceAlpha" type="matrix" values="0 0 0 0 0 0 0 0 0 0 0 0 0 0 0 0 0 0 127 0" result="hardAlpha"/>
<feOffset/>
<feGaussianBlur stdDeviation="30"/>
<feComposite in2="hardAlpha" operator="out"/>
<feColorMatrix type="matrix" values="0 0 0 0 0.498039 0 0 0 0 0.811765 0 0 0 0 1 0 0 0 0.5 0"/>
<feBlend mode="normal" in2="BackgroundImageFix" result="effect1_dropShadow_632_16019"/>
<feBlend mode="normal" in="SourceGraphic" in2="effect1_dropShadow_632_16019" result="shape"/>
</filter>
<filter id="filter3_d_632_16019" x="905" y="406" width="229" height="230" filterUnits="userSpaceOnUse" color-interpolation-filters="sRGB">
<feFlood flood-opacity="0" result="BackgroundImageFix"/>
<feColorMatrix in="SourceAlpha" type="matrix" values="0 0 0 0 0 0 0 0 0 0 0 0 0 0 0 0 0 0 127 0" result="hardAlpha"/>
<feOffset/>
<feGaussianBlur stdDeviation="30"/>
<feComposite in2="hardAlpha" operator="out"/>
<feColorMatrix type="matrix" values="0 0 0 0 0.498039 0 0 0 0 0.811765 0 0 0 0 1 0 0 0 0.5 0"/>
<feBlend mode="normal" in2="BackgroundImageFix" result="effect1_dropShadow_632_16019"/>
<feBlend mode="normal" in="SourceGraphic" in2="effect1_dropShadow_632_16019" result="shape"/>
</filter>
<radialGradient id="paint0_radial_632_16019" cx="0" cy="0" r="1" gradientUnits="userSpaceOnUse" gradientTransform="translate(640 530) rotate(90) scale(587 775.285)">
<stop offset="0.6875" stop-color="white"/>
<stop offset="1" stop-color="white" stop-opacity="0"/>
</radialGradient>
<clipPath id="clip0_632_16019">
<rect width="1280" height="960" fill="white"/>
</clipPath>
</defs>
</svg>
