<svg width="1280" height="960" viewBox="0 0 1280 960" fill="none" xmlns="http://www.w3.org/2000/svg">
<g clip-path="url(#clip0_638_16384)">
<mask id="mask0_638_16384" style="mask-type:alpha" maskUnits="userSpaceOnUse" x="0" y="0" width="1280" height="960">
<rect width="1280" height="960" fill="url(#paint0_linear_638_16384)"/>
</mask>
<g mask="url(#mask0_638_16384)">
<path d="M425.775 428.514V416.441C425.775 412.281 422.61 408.839 418.453 408.67C394.526 407.699 317.399 407.525 268.845 441.718C266.797 443.161 265.635 445.534 265.635 448.04V471.27" stroke="#444746" stroke-width="8" stroke-miterlimit="10"/>
<path d="M854.89 428.514V416.441C854.89 412.281 858.055 408.839 862.212 408.67C886.14 407.699 963.266 407.525 1011.82 441.718C1013.87 443.161 1015.03 445.534 1015.03 448.04V471.27" stroke="#444746" stroke-width="8" stroke-miterlimit="10"/>
<path d="M1178.45 975.758C1158.08 821.08 1115.01 653.188 1076.63 552.92C1039.04 451.874 939.576 431.665 846.378 431.665H433.64C340.441 431.665 240.977 451.874 203.384 552.92C165.792 653.966 122.716 821.08 101.57 975.758C89.8227 1052.71 146.212 1099.35 196.335 1104.79C246.459 1110.23 306.765 1091.57 336.525 1015.4C366.286 940.004 378.817 875.49 441.472 875.49C494.728 875.49 784.506 875.49 837.763 875.49C900.417 875.49 912.948 940.004 942.709 1015.4C972.47 1090.8 1032.78 1110.23 1082.9 1104.79C1133.02 1099.35 1190.2 1052.71 1178.45 975.758Z" fill="white" fill-opacity="0.05" stroke="#8E918F" stroke-width="10" stroke-miterlimit="10"/>
<path d="M405.611 582.853H374.393C372.184 582.853 370.393 581.062 370.393 578.853V547.635C370.393 532.766 357.871 520.244 343.001 520.244C328.132 520.244 315.61 532.766 315.61 547.635V578.853C315.61 581.062 313.819 582.853 311.61 582.853H280.392C265.522 582.853 253 595.374 253 610.244C253 625.113 265.522 637.635 280.392 637.635H311.61C313.819 637.635 315.61 639.426 315.61 641.635V672.853C315.61 687.722 328.132 700.244 343.001 700.244C357.871 700.244 370.393 687.722 370.393 672.853V641.635C370.393 639.426 372.184 637.635 374.393 637.635H405.611C420.481 637.635 433.003 625.113 433.003 610.244C433.003 595.374 421.263 582.853 405.611 582.853Z" stroke="#8E918F" stroke-width="6" stroke-miterlimit="10"/>
<path d="M480.447 829.4C515.794 829.4 544.448 800.746 544.448 765.4C544.448 730.054 515.794 701.4 480.447 701.4C445.101 701.4 416.447 730.054 416.447 765.4C416.447 800.746 445.101 829.4 480.447 829.4Z" stroke="#444746" stroke-width="2" stroke-miterlimit="10"/>
<path d="M479.995 813.4C506.505 813.4 527.996 791.91 527.996 765.4C527.996 738.89 506.505 717.4 479.995 717.4C453.485 717.4 431.994 738.89 431.994 765.4C431.994 791.91 453.485 813.4 479.995 813.4Z" stroke="#8E918F" stroke-width="6" stroke-miterlimit="10"/>
<path d="M640 801.4C659.882 801.4 676 785.282 676 765.4C676 745.518 659.882 729.4 640 729.4C620.118 729.4 604 745.518 604 765.4C604 785.282 620.118 801.4 640 801.4Z" stroke="#E3E3E3" stroke-width="4" stroke-miterlimit="10"/>
<path d="M630.799 762.18C642.055 757.104 651.893 760.164 657.148 762.729C657.641 762.969 658.231 762.721 658.405 762.201L659.942 757.59C660.122 757.051 659.874 756.463 659.362 756.213C652.876 753.045 637.478 747.992 620.476 759.957C620.036 760.267 619.879 760.847 620.098 761.34L623.687 769.415C623.928 769.96 624.55 770.224 625.11 770.019C629.216 768.515 635.427 766.936 641.865 767.865C637.508 768.603 634.007 770.14 631.318 771.79C630.838 772.084 630.648 772.687 630.872 773.203C630.872 773.203 632.298 776.469 633.078 778.256C633.272 778.702 633.858 778.805 634.192 778.453C635.018 777.581 635.933 776.946 636.676 776.515C640.153 774.496 644.96 773 651.459 773.344C651.967 773.37 652.431 773.054 652.591 772.572L654.234 767.645C654.398 767.152 654.207 766.609 653.769 766.331C648.949 763.285 641.526 760.747 630.77 762.193L630.799 762.18Z" fill="#C4C7C5"/>
<path d="M800 829.398C835.346 829.398 864 800.745 864 765.399C864 730.053 835.346 701.4 800 701.4C764.654 701.4 736 730.053 736 765.399C736 800.745 764.654 829.398 800 829.398Z" stroke="#444746" stroke-width="2" stroke-miterlimit="10"/>
<path d="M800.47 813.892C826.98 813.892 848.47 792.402 848.47 765.893C848.47 739.384 826.98 717.894 800.47 717.894C773.96 717.894 752.47 739.384 752.47 765.893C752.47 792.402 773.96 813.892 800.47 813.892Z" stroke="#8E918F" stroke-width="6" stroke-miterlimit="10"/>
<path d="M532.4 552.576C543.147 552.576 552 543.456 552 532.576C552 521.696 543.147 512.576 532.4 512.576H503.6C492.853 512.576 484 521.696 484 532.576C484 543.456 492.853 552.576 503.6 552.576H532.4Z" stroke="#8E918F" stroke-width="4" stroke-miterlimit="10"/>
<path d="M510 532.4C510 534.609 508.209 536.4 506 536.4C503.791 536.4 502 534.609 502 532.4C502 530.191 503.791 528.4 506 528.4C508.209 528.4 510 530.191 510 532.4Z" fill="#C4C7C5"/>
<path d="M522 532.4C522 534.609 520.209 536.4 518 536.4C515.791 536.4 514 534.609 514 532.4C514 530.191 515.791 528.4 518 528.4C520.209 528.4 522 530.191 522 532.4Z" fill="#C4C7C5"/>
<path d="M534 532.4C534 534.609 532.209 536.4 530 536.4C527.791 536.4 526 534.609 526 532.4C526 530.191 527.791 528.4 530 528.4C532.209 528.4 534 530.191 534 532.4Z" fill="#C4C7C5"/>
<path d="M564 635.43C577.255 635.43 588 624.685 588 611.43C588 598.175 577.255 587.43 564 587.43C550.745 587.43 540 598.175 540 611.43C540 624.685 550.745 635.43 564 635.43Z" stroke="#8E918F" stroke-width="4" stroke-miterlimit="10"/>
<path d="M575.083 607.9C574.597 607.9 574.179 607.735 573.829 607.404C573.499 607.054 573.333 606.636 573.333 606.15C573.333 605.664 573.499 605.255 573.829 604.925C574.179 604.575 574.597 604.4 575.083 604.4C575.57 604.4 575.978 604.575 576.308 604.925C576.658 605.255 576.833 605.664 576.833 606.15C576.833 606.636 576.658 607.054 576.308 607.404C575.978 607.735 575.57 607.9 575.083 607.9ZM569.833 613.733C568.861 613.733 568.035 613.393 567.354 612.712C566.674 612.032 566.333 611.205 566.333 610.233C566.333 609.261 566.674 608.435 567.354 607.754C568.035 607.073 568.861 606.733 569.833 606.733C570.806 606.733 571.632 607.073 572.313 607.754C572.993 608.435 573.333 609.261 573.333 610.233C573.333 611.205 572.993 612.032 572.313 612.712C571.632 613.393 570.806 613.733 569.833 613.733ZM569.833 623.066C568.706 623.066 567.743 622.668 566.946 621.871C566.149 621.073 565.75 620.111 565.75 618.983C565.75 617.855 566.149 616.893 566.946 616.096C567.743 615.298 568.706 614.9 569.833 614.9C570.961 614.9 571.924 615.298 572.721 616.096C573.518 616.893 573.917 617.855 573.917 618.983C573.917 620.111 573.518 621.073 572.721 621.871C571.924 622.668 570.961 623.066 569.833 623.066ZM558.167 613.733C556.222 613.733 554.57 613.053 553.208 611.691C551.847 610.33 551.167 608.678 551.167 606.733C551.167 604.789 551.847 603.136 553.208 601.775C554.57 600.414 556.222 599.733 558.167 599.733C560.111 599.733 561.764 600.414 563.125 601.775C564.486 603.136 565.167 604.789 565.167 606.733C565.167 608.678 564.486 610.33 563.125 611.691C561.764 613.053 560.111 613.733 558.167 613.733Z" fill="#C4C7C5"/>
<path d="M715.367 635.43C728.622 635.43 739.367 624.684 739.367 611.43C739.367 598.175 728.622 587.43 715.367 587.43C702.112 587.43 691.367 598.175 691.367 611.43C691.367 624.684 702.112 635.43 715.367 635.43Z" stroke="#8E918F" stroke-width="4" stroke-miterlimit="10"/>
<path d="M704.5 621.9V614.512H707.125V619.275H711.887V621.9H704.5ZM704.5 608.25V600.9H711.887V603.525H707.125V608.25H704.5ZM718.15 621.9V619.275H722.875V614.512H725.5V621.9H718.15ZM722.875 608.25V603.525H718.15V600.9H725.5V608.25H722.875Z" fill="#C4C7C5"/>
<path d="M776.275 552.576C787.022 552.576 795.875 543.456 795.875 532.576C795.875 521.696 787.022 512.576 776.275 512.576H747.475C736.728 512.576 727.875 521.696 727.875 532.576C727.875 543.456 736.728 552.576 747.475 552.576H776.275Z" stroke="#8E918F" stroke-width="4" stroke-miterlimit="10"/>
<path d="M749.25 540.9V538.35H774.75V540.9H749.25ZM749.25 533.675V531.125H774.75V533.675H749.25ZM749.25 526.45V523.9H774.75V526.45H749.25Z" fill="#C4C7C5"/>
<path d="M946.749 711.4C965.527 711.4 980.749 696.178 980.749 677.4C980.749 658.622 965.527 643.4 946.749 643.4C927.971 643.4 912.749 658.622 912.749 677.4C912.749 696.178 927.971 711.4 946.749 711.4Z" stroke="#8E918F" stroke-width="4" stroke-miterlimit="10"/>
<path d="M936.839 688.4L945.479 665.488H949.479L958.151 688.4H954.279L952.167 682.512H942.823L940.711 688.4H936.839ZM950.983 679.248L948.455 672.24L947.591 669.616H947.399L946.535 672.24L944.007 679.248H950.983Z" fill="#C4C7C5"/>
<path d="M879 643.324C897.778 643.324 913 628.102 913 609.324C913 590.547 897.778 575.324 879 575.324C860.222 575.324 845 590.547 845 609.324C845 628.102 860.222 643.324 879 643.324Z" stroke="#8E918F" stroke-width="4" stroke-miterlimit="10"/>
<path d="M869.512 597.488H873.832L878.92 605.712H879.112L884.232 597.488H888.52L881.384 608.496L889.032 620.4H884.744L879.112 611.472H878.92L873.288 620.4H869L876.648 608.496L869.512 597.488Z" fill="#C4C7C5"/>
<path d="M946.749 575.4C965.527 575.4 980.749 560.178 980.749 541.4C980.749 522.622 965.527 507.4 946.749 507.4C927.971 507.4 912.749 522.622 912.749 541.4C912.749 560.178 927.971 575.4 946.749 575.4Z" stroke="#8E918F" stroke-width="4" stroke-miterlimit="10"/>
<path d="M945.333 552.312V541.688L937.589 529.4H941.749L946.965 538.04H947.157L952.245 529.4H956.437L948.821 541.688V552.312H945.333Z" fill="#C4C7C5"/>
<path d="M1015 643.324C1033.78 643.324 1049 628.102 1049 609.324C1049 590.547 1033.78 575.324 1015 575.324C996.222 575.324 981 590.546 981 609.324C981 628.102 996.222 643.324 1015 643.324Z" stroke="#8E918F" stroke-width="4" stroke-miterlimit="10"/>
<path d="M1008.08 620.4V597.488H1016.65C1017.91 597.488 1019.05 597.755 1020.08 598.288C1021.1 598.821 1021.91 599.547 1022.51 600.464C1023.13 601.381 1023.44 602.416 1023.44 603.568C1023.44 604.741 1023.15 605.744 1022.57 606.576C1022 607.408 1021.25 608.037 1020.33 608.464V608.624C1021.48 609.008 1022.42 609.669 1023.15 610.608C1023.87 611.547 1024.24 612.667 1024.24 613.968C1024.24 615.248 1023.91 616.368 1023.24 617.328C1022.6 618.288 1021.73 619.045 1020.62 619.6C1019.53 620.133 1018.34 620.4 1017.04 620.4H1008.08ZM1011.6 610.256V617.136H1017.04C1017.8 617.136 1018.47 616.976 1019.02 616.656C1019.58 616.336 1019.99 615.909 1020.27 615.376C1020.57 614.843 1020.72 614.288 1020.72 613.712C1020.72 613.093 1020.57 612.528 1020.27 612.016C1019.97 611.483 1019.53 611.056 1018.96 610.736C1018.4 610.416 1017.72 610.256 1016.91 610.256H1011.6ZM1011.6 607.12H1016.49C1017.24 607.12 1017.87 606.971 1018.38 606.672C1018.91 606.352 1019.32 605.947 1019.6 605.456C1019.87 604.944 1020.01 604.421 1020.01 603.888C1020.01 603.355 1019.87 602.853 1019.6 602.384C1019.34 601.893 1018.96 601.499 1018.44 601.2C1017.93 600.88 1017.32 600.72 1016.62 600.72H1011.6V607.12Z" fill="#C4C7C5"/>
<g filter="url(#filter0_d_638_16384)">
<rect x="616" y="235.6" width="48" height="38.4" fill="#8E918F"/>
<rect x="604" y="120.4" width="72" height="115.2" fill="#E3E3E3"/>
<rect x="625.6" y="82" width="28.8" height="38.4" fill="#E3E3E3"/>
<rect x="630.4" y="-158" width="19.2" height="240" fill="#C4C7C5"/>
</g>
<g filter="url(#filter1_d_638_16384)">
<path d="M645 312.4C645 309.639 642.761 307.4 640 307.4C637.239 307.4 635 309.639 635 312.4L645 312.4ZM636.464 392.736C638.417 394.688 641.583 394.688 643.536 392.736L675.355 360.916C677.308 358.963 677.308 355.797 675.355 353.845C673.403 351.892 670.237 351.892 668.284 353.845L640 382.129L611.716 353.845C609.763 351.892 606.597 351.892 604.645 353.845C602.692 355.797 602.692 358.963 604.645 360.916L636.464 392.736ZM635 312.4L635 389.2L645 389.2L645 312.4L635 312.4Z" fill="#7FCFFF"/>
</g>
</g>
</g>
<defs>
<filter id="filter0_d_638_16384" x="544" y="-218" width="192" height="552" filterUnits="userSpaceOnUse" color-interpolation-filters="sRGB">
<feFlood flood-opacity="0" result="BackgroundImageFix"/>
<feColorMatrix in="SourceAlpha" type="matrix" values="0 0 0 0 0 0 0 0 0 0 0 0 0 0 0 0 0 0 127 0" result="hardAlpha"/>
<feOffset/>
<feGaussianBlur stdDeviation="30"/>
<feComposite in2="hardAlpha" operator="out"/>
<feColorMatrix type="matrix" values="0 0 0 0 1 0 0 0 0 1 0 0 0 0 1 0 0 0 0.3 0"/>
<feBlend mode="normal" in2="BackgroundImageFix" result="effect1_dropShadow_638_16384"/>
<feBlend mode="normal" in="SourceGraphic" in2="effect1_dropShadow_638_16384" result="shape"/>
</filter>
<filter id="filter1_d_638_16384" x="567.18" y="271.4" width="145.64" height="158.8" filterUnits="userSpaceOnUse" color-interpolation-filters="sRGB">
<feFlood flood-opacity="0" result="BackgroundImageFix"/>
<feColorMatrix in="SourceAlpha" type="matrix" values="0 0 0 0 0 0 0 0 0 0 0 0 0 0 0 0 0 0 127 0" result="hardAlpha"/>
<feOffset/>
<feGaussianBlur stdDeviation="18"/>
<feComposite in2="hardAlpha" operator="out"/>
<feColorMatrix type="matrix" values="0 0 0 0 0.498039 0 0 0 0 0.811765 0 0 0 0 1 0 0 0 0.3 0"/>
<feBlend mode="normal" in2="BackgroundImageFix" result="effect1_dropShadow_638_16384"/>
<feBlend mode="normal" in="SourceGraphic" in2="effect1_dropShadow_638_16384" result="shape"/>
</filter>
<linearGradient id="paint0_linear_638_16384" x1="640" y1="0" x2="640" y2="960" gradientUnits="userSpaceOnUse">
<stop stop-color="white" stop-opacity="0"/>
<stop offset="0.177083" stop-color="white"/>
<stop offset="0.78125" stop-color="white"/>
<stop offset="1" stop-color="white" stop-opacity="0"/>
</linearGradient>
<clipPath id="clip0_638_16384">
<rect width="1280" height="960" fill="white"/>
</clipPath>
</defs>
</svg>
